<?xml version="1.0" standalone="no"?>
<!DOCTYPE svg PUBLIC "-//W3C//DTD SVG 1.1//EN" "http://www.w3.org/Graphics/SVG/1.1/DTD/svg11.dtd" >
<svg xmlns="http://www.w3.org/2000/svg">
<metadata></metadata>
<defs>
<font id="sofia_pro_blackregular" horiz-adv-x="608" >
<font-face units-per-em="1000" ascent="750" descent="-250"/>
<missing-glyph horiz-adv-x="238"/>
<glyph unicode="&#xfb01;" horiz-adv-x="728" d="M20 349v117h87v17q0 111 59.5 169.5t164.5 58.5h60v-151h-60q-29 0 -46.5 -19.5t-18.5 -57.5v-17h403v-466h-159v349h-244v-349h-159v349h-87zM493 621q0 38 28.5 64t67.5 26q40 0 67.5 -26t27.5 -64t-27.5 -64.5t-67.5 -26.5q-39 0 -67.5 27t-28.5 64z"/>
<glyph unicode="&#xfb02;" horiz-adv-x="712" d="M20 349v117h87v17q0 111 59.5 169.5t164.5 58.5h321v-711h-159v560h-162q-29 0 -46.5 -19.5t-18.5 -57.5v-17h98v-117h-98v-349h-159v349h-87z"/>
<glyph unicode="&#xfb03;" horiz-adv-x="1143" d="M20 349v117h87v17q0 111 59.5 169.5t164.5 58.5h60v-151h-60q-29 0 -46.5 -19.5t-18.5 -57.5v-17h256v17q0 111 59.5 169.5t164.5 58.5h60v-151h-60q-29 0 -46.5 -19.5t-18.5 -57.5v-17h403v-466h-159v349h-244v-349h-159v349h-256v-349h-159v349h-87zM908 621 q0 38 28.5 64t67.5 26q40 0 67.5 -26t27.5 -64t-27.5 -64.5t-67.5 -26.5q-39 0 -67.5 27t-28.5 64z"/>
<glyph unicode="&#xfb04;" horiz-adv-x="1127" d="M20 349v117h87v17q0 111 59.5 169.5t164.5 58.5h60v-151h-60q-29 0 -46.5 -19.5t-18.5 -57.5v-17h256v17q0 111 59.5 169.5t164.5 58.5h321v-711h-159v560h-162q-29 0 -46.5 -19.5t-18.5 -57.5v-17h98v-117h-98v-349h-159v349h-256v-349h-159v349h-87z"/>
<glyph horiz-adv-x="1000"/>
<glyph horiz-adv-x="1000"/>
<glyph unicode="&#xd;" horiz-adv-x="1000"/>
<glyph unicode=" "  horiz-adv-x="238"/>
<glyph unicode="&#x09;" horiz-adv-x="238"/>
<glyph unicode="&#xa0;" horiz-adv-x="238"/>
<glyph unicode="!" horiz-adv-x="295" d="M52 84q0 39 27.5 65t66.5 26q40 0 68 -26t28 -65q0 -40 -28 -66.5t-68 -26.5q-39 0 -66.5 26.5t-27.5 66.5zM64 689h167l-18 -458h-131z"/>
<glyph unicode="&#x22;" horiz-adv-x="414" d="M55 689h129l-20 -301h-89zM230 689h129l-20 -301h-89z"/>
<glyph unicode="#" horiz-adv-x="751" d="M35 160l27 95h117l52 165h-116l28 95h117l53 174h121l-54 -174h99l55 174h119l-55 -174h119l-27 -95h-119l-53 -165h119l-29 -95h-118l-54 -160h-118l52 160h-100l-53 -160h-118l54 160h-118zM298 255h99l54 165h-100z"/>
<glyph unicode="$" horiz-adv-x="584" d="M38 205h169q2 -30 23 -48.5t62 -18.5q35 0 60 16t25 46q0 9 -2 15t-19 19t-48 23l-81 27q-55 15 -93 40t-55.5 54.5t-24.5 55.5t-7 53q0 85 57.5 142t149.5 67v109h77v-110q87 -12 140.5 -67.5t53.5 -144.5h-167q0 64 -72 64q-34 0 -53.5 -15t-19.5 -40q0 -37 64 -56 l79 -25q191 -59 191 -210q0 -94 -63 -146t-153 -61v-120h-77v119q-100 10 -158 66.5t-58 145.5z"/>
<glyph unicode="%" horiz-adv-x="699" d="M35 535q0 56 38.5 95t94.5 39t95 -39.5t39 -94.5q0 -56 -39 -94.5t-95 -38.5t-94.5 38.5t-38.5 94.5zM121 535q0 -20 13.5 -33.5t33.5 -13.5t34 13.5t14 33.5q0 19 -14 33.5t-34 14.5t-33.5 -14t-13.5 -34zM136 0l329 656h95l-330 -656h-94zM397 124q0 56 38.5 95 t94.5 39t95 -39t39 -95t-39 -94.5t-95 -38.5t-94.5 38.5t-38.5 94.5zM483 124q0 -20 13.5 -33.5t33.5 -13.5t34 13.5t14 33.5t-14 34t-34 14t-33.5 -14t-13.5 -34z"/>
<glyph unicode="&#x26;" horiz-adv-x="709" d="M51 189q0 66 34 110t85 58q-43 8 -72.5 51t-29.5 101q0 75 58.5 128.5t150.5 59.5q130 9 210 -85l-120 -96q-22 27 -52 27q-34 0 -52 -19t-18 -39q0 -8 1.5 -15.5t8 -22t24.5 -23t45 -8.5h90v71h147v-76h86v-117h-86v-83q0 -71 22 -90.5t84 12.5v-118q-88 -33 -148.5 -17 t-77.5 82q-23 -41 -74 -65.5t-100 -24.5q-98 0 -157 55.5t-59 143.5zM319 145q11 0 25 4.5t31 16t28.5 38t10.5 63.5v17h-95q-40 0 -63.5 -21.5t-24 -48t23 -48t64.5 -21.5z"/>
<glyph unicode="'" horiz-adv-x="239" d="M55 689h129l-20 -301h-89z"/>
<glyph unicode="(" horiz-adv-x="398" d="M34 226q0 198 97.5 334.5t236.5 136.5v-116q-45 0 -93 -53.5t-79.5 -137t-31.5 -164.5q0 -80 31.5 -161t79 -132t93.5 -51v-115q-140 0 -237 131.5t-97 327.5z"/>
<glyph unicode=")" horiz-adv-x="398" d="M30 -118q46 0 93.5 51t79 132t31.5 161q0 81 -31.5 164.5t-79.5 137t-93 53.5v116q139 0 236.5 -136.5t97.5 -334.5q0 -196 -97 -327.5t-237 -131.5v115z"/>
<glyph unicode="*" horiz-adv-x="472" d="M42 535l31 93l121 -48l-8 131h100l-9 -130l123 47l29 -93l-125 -34l83 -104l-78 -55l-71 108l-76 -110l-76 58l82 101z"/>
<glyph unicode="+" horiz-adv-x="503" d="M46 181v108h151v151h108v-151h152v-108h-152v-152h-108v152h-151z"/>
<glyph unicode="," horiz-adv-x="275" d="M-3 -83q41 56 59.5 105.5t18.5 135.5h141q0 -166 -137 -281z"/>
<glyph unicode="-" horiz-adv-x="471" d="M58 175v135h355v-135h-355z"/>
<glyph unicode="." horiz-adv-x="288" d="M49 84q0 39 27.5 65t66.5 26q40 0 68 -26t28 -65q0 -40 -28 -66.5t-68 -26.5q-39 0 -66.5 26.5t-27.5 66.5z"/>
<glyph unicode="/" horiz-adv-x="501" d="M29 0l327 689h116l-327 -689h-116z"/>
<glyph unicode="0" horiz-adv-x="604" d="M55 327q0 339 249 339q69 0 118.5 -25.5t76 -73.5t38.5 -106.5t12 -133.5q0 -336 -245 -336q-249 0 -249 336zM215 327q0 -81 21.5 -131.5t67.5 -50.5q85 0 85 182q0 184 -85 184q-46 0 -67.5 -51t-21.5 -133z"/>
<glyph unicode="1" horiz-adv-x="396" d="M36 394v137l278 140v-671h-163v446z"/>
<glyph unicode="2" horiz-adv-x="568" d="M48 0v90l271 314q30 34 30 60q0 21 -16.5 37t-52.5 16q-40 0 -58 -23.5t-25 -65.5l-144 22q16 101 78 158.5t161 57.5q89 0 153 -57t64 -145q0 -89 -68 -164l-145 -156h213v-144h-461z"/>
<glyph unicode="3" horiz-adv-x="549" d="M34 113l102 90q12 -27 40 -49.5t70 -22.5q47 0 71 22t24 53q0 30 -25 51t-73 21h-67v123h67q23 0 38.5 9t21.5 23.5t7.5 23.5t1.5 17q0 16 -17.5 37.5t-50.5 21.5q-50 0 -89 -41l-94 77q31 47 87 74t123 23q87 -4 144 -58.5t55 -126.5q0 -80 -86 -127q54 -20 84.5 -62 t30.5 -96q0 -95 -74 -149.5t-179 -54.5q-72 0 -128.5 32t-83.5 89z"/>
<glyph unicode="4" horiz-adv-x="630" d="M19 152l283 504h202v-373h78v-131h-78v-152h-162v152h-323zM225 283h117v219z"/>
<glyph unicode="5" horiz-adv-x="604" d="M40 115l124 90q54 -64 114 -64q51 0 86.5 31t35.5 67q0 43 -30.5 67.5t-78.5 24.5q-93 0 -162 -70l-69 39l52 356h398v-139h-272l-14 -89q53 36 121 36q89 0 151 -62t62 -163q0 -108 -76.5 -178.5t-203.5 -70.5q-67 0 -132 34.5t-106 90.5z"/>
<glyph unicode="6" horiz-adv-x="598" d="M59 220q-9 50 -7 103t9 103.5t28.5 94.5t51.5 77t79 51.5t110 16.5q70 -3 122 -30.5t86 -97.5l-130 -62q-24 51 -83 51q-35 0 -60 -17.5t-37.5 -46.5t-18.5 -57t-6 -58q6 24 42.5 48.5t99.5 24.5q30 0 63 -11t66 -33t54.5 -64.5t21.5 -97.5q0 -99 -66 -161.5t-185 -62.5 q-95 0 -160.5 62t-79.5 167zM226 212q0 -33 22.5 -56t59.5 -23t60.5 23t23.5 56q0 29 -23 52.5t-61 23.5q-35 0 -58.5 -23.5t-23.5 -52.5z"/>
<glyph unicode="7" horiz-adv-x="549" d="M40 511v145h496l-262 -656h-180l205 511h-259z"/>
<glyph unicode="8" horiz-adv-x="611" d="M48 204q0 56 27 102t75 63q-27 17 -43.5 50.5t-16.5 67.5q0 77 64 128t153 51q88 0 149 -50.5t61 -128.5q0 -37 -15.5 -71t-42.5 -47q44 -14 75 -63t31 -102q0 -94 -75 -153.5t-183 -59.5t-183.5 59.5t-75.5 153.5zM211 220q0 -37 26.5 -61.5t69.5 -24.5t69 24.5t26 61.5 q0 33 -26 58.5t-64 25.5h-8q-41 0 -67 -25t-26 -59zM240 481q0 -26 18.5 -43t48.5 -17q29 0 47 17t18 43q0 22 -17.5 40t-43.5 18h-6q-28 0 -46.5 -17.5t-18.5 -40.5z"/>
<glyph unicode="9" horiz-adv-x="598" d="M47 442q0 99 66 161.5t185 62.5q95 0 160.5 -62t79.5 -167q9 -50 7 -103t-9 -103.5t-28.5 -94.5t-51.5 -77t-79 -51.5t-110 -16.5q-70 3 -122 30.5t-86 97.5l130 62q24 -51 83 -51q35 0 60 17.5t37.5 46.5t18.5 57t6 58q-6 -24 -42.5 -48.5t-99.5 -24.5q-30 0 -63 11 t-66 33t-54.5 64.5t-21.5 97.5zM205 445q0 -29 23 -52.5t61 -23.5q35 0 58.5 23.5t23.5 52.5q0 33 -22.5 56t-59.5 23t-60.5 -23t-23.5 -56z"/>
<glyph unicode=":" horiz-adv-x="309" d="M60 84q0 39 27.5 65t66.5 26t66.5 -26t27.5 -65q0 -40 -27.5 -66.5t-66.5 -26.5t-66.5 26.5t-27.5 66.5zM60 384q0 40 27.5 66.5t66.5 26.5t66.5 -26.5t27.5 -66.5q0 -39 -27.5 -65t-66.5 -26t-66.5 26t-27.5 65z"/>
<glyph unicode=";" horiz-adv-x="300" d="M10 -83q41 56 59.5 105.5t18.5 135.5h141q0 -166 -137 -281zM61 384q0 40 27.5 66.5t66.5 26.5t66.5 -26.5t27.5 -66.5q0 -39 -27.5 -65t-66.5 -26t-66.5 26t-27.5 65z"/>
<glyph unicode="&#x3c;" horiz-adv-x="616" d="M43 252v122l500 191v-115l-353 -138l353 -136v-116z"/>
<glyph unicode="=" horiz-adv-x="592" d="M66 165v102h460v-102h-460zM66 369v102h460v-102h-460z"/>
<glyph unicode="&#x3e;" horiz-adv-x="616" d="M73 60v116l353 136l-353 138v115l500 -191v-122z"/>
<glyph unicode="?" horiz-adv-x="496" d="M38 484q0 104 57 159.5t154 55.5q95 0 153 -53t58 -142q0 -71 -34 -119t-94 -70q-30 -11 -41 -29.5t-11 -54.5h-143v12q0 35 2.5 57t12.5 48t32 45.5t57 34.5l37 16q34 14 34 50q0 26 -18 40t-48 14q-26 0 -45 -18t-19 -46h-144zM116 84q0 39 27.5 65t66.5 26 q40 0 68 -26t28 -65q0 -40 -28 -66.5t-68 -26.5q-39 0 -66.5 26.5t-27.5 66.5z"/>
<glyph unicode="@" horiz-adv-x="963" d="M44 270q0 183 125.5 311.5t306.5 128.5q121 0 224 -54.5t165 -152t62 -215.5q0 -48 -10.5 -97t-32.5 -95t-62 -75t-92 -29q-66 0 -109.5 38t-43.5 120v125q0 47 -32.5 79.5t-78.5 32.5q-45 0 -78 -32.5t-33 -79.5q0 -44 33 -77t78 -33q43 0 71 16v-98q-26 -13 -71 -13 q-86 0 -146.5 60t-60.5 145q0 87 60.5 147t146.5 60q85 0 145 -57.5t63 -139.5v-140q0 -30 17 -45.5t39 -15.5q29 0 50 20.5t31 54.5t14.5 65.5t4.5 63.5q0 139 -104 232.5t-250 93.5q-141 0 -238.5 -100.5t-97.5 -243.5q0 -142 97 -240t239 -98h61v-97h-61q-182 0 -307 126 t-125 309z"/>
<glyph unicode="A" horiz-adv-x="667" d="M-11 0l254 689h182l253 -689h-177l-58 158h-217l-58 -158h-179zM271 302h129l-67 227z"/>
<glyph unicode="B" horiz-adv-x="644" d="M77 0v689h282q96 0 153.5 -51t57.5 -134q0 -39 -23 -80t-74 -56q65 -10 99 -59t34 -105q0 -85 -55 -144.5t-172 -59.5h-302zM245 146h107q37 0 57 21t20 50q0 27 -19.5 48t-58.5 21h-106v-140zM245 423h90q26 0 42 15.5t16 41.5q0 63 -56 63h-92v-120z"/>
<glyph unicode="C" horiz-adv-x="707" d="M38 344q0 96 47 177.5t128 129t176 47.5q91 0 168.5 -42.5t125.5 -115.5l-139 -97q-24 40 -65.5 63.5t-89.5 23.5q-76 0 -129 -54.5t-53 -131.5t53 -131t129 -54q49 0 90 23t66 63l137 -96q-48 -73 -125.5 -115.5t-167.5 -42.5q-145 0 -248 103.5t-103 249.5zM683 540z "/>
<glyph unicode="D" horiz-adv-x="705" d="M77 0v689h273q145 0 229 -97.5t84 -248.5q0 -150 -83.5 -246.5t-229.5 -96.5h-273zM245 149h105q69 0 107.5 56.5t38.5 137.5q0 82 -38.5 139.5t-107.5 57.5h-105v-391z"/>
<glyph unicode="E" horiz-adv-x="581" d="M77 0v689h447v-146h-280v-132h246v-143h-246v-122h289v-146h-456z"/>
<glyph unicode="F" horiz-adv-x="545" d="M77 0v689h443v-146h-274v-132h217v-144h-217v-267h-169z"/>
<glyph unicode="G" horiz-adv-x="756" d="M38 344q0 147 103 250.5t252 103.5q82 0 152.5 -32.5t116.5 -89.5l-124 -105q-59 72 -145 72q-78 0 -132 -58t-54 -141q0 -82 54 -141.5t132 -59.5q136 0 158 92h-193v134h375q0 -190 -92 -284t-248 -94q-149 0 -252 103.5t-103 249.5z"/>
<glyph unicode="H" horiz-adv-x="701" d="M77 0v689h167v-272h210v272h170v-689h-170v268h-210v-268h-167z"/>
<glyph unicode="I" horiz-adv-x="321" d="M77 0v689h167v-689h-167z"/>
<glyph unicode="J" horiz-adv-x="323" d="M-97 -211l15 150q34 -12 96 -12q32 0 47.5 22t15.5 58v682h169v-682q0 -105 -56.5 -171t-175.5 -66q-55 0 -111 19z"/>
<glyph unicode="K" horiz-adv-x="633" d="M77 0v689h167v-197l137 197h209l-259 -340l322 -349h-229l-180 210v-210h-167z"/>
<glyph unicode="L" horiz-adv-x="518" d="M77 0v689h169v-543h248v-146h-417z"/>
<glyph unicode="M" horiz-adv-x="913" d="M39 0l85 689h139l194 -419l191 419h141l84 -689h-172l-42 371l-139 -291h-126l-140 291l-43 -371h-172z"/>
<glyph unicode="N" horiz-adv-x="678" d="M77 0v689h151l206 -371v371h167v-689h-146l-211 376v-376h-167z"/>
<glyph unicode="O" horiz-adv-x="779" d="M38 344q0 147 102.5 250.5t248.5 103.5q147 0 249.5 -103.5t102.5 -250.5q0 -146 -102.5 -249.5t-249.5 -103.5q-145 0 -248 103.5t-103 249.5zM207 344q0 -77 53 -131t129 -54q77 0 130.5 54t53.5 131t-54 131.5t-130 54.5t-129 -54.5t-53 -131.5z"/>
<glyph unicode="P" horiz-adv-x="618" d="M77 0v689h285q114 0 175 -68t61 -162q0 -95 -61 -162t-175 -67h-118v-230h-167zM244 374h110q38 0 56.5 25t18.5 60t-18.5 59.5t-56.5 24.5h-110v-169z"/>
<glyph unicode="Q" horiz-adv-x="786" d="M38 344q0 147 103 250.5t252 103.5t252.5 -103t103.5 -251q0 -85 -39 -160t-106 -125l64 -108l-116 -69l-72 119q-41 -10 -87 -10q-149 0 -252 103.5t-103 249.5zM207 344q0 -65 36.5 -115.5t95.5 -69.5q17 -7 52 -10l-49 83l116 68l61 -100q61 56 61 144q0 82 -55 139.5 t-132 57.5q-79 0 -132.5 -57t-53.5 -140z"/>
<glyph unicode="R" horiz-adv-x="642" d="M77 0v689h285q114 0 175 -68t61 -162q0 -78 -42.5 -139.5t-122.5 -81.5l168 -238h-194l-148 230h-15v-230h-167zM244 374h110q38 0 56.5 25t18.5 60t-18.5 59.5t-56.5 24.5h-110v-169z"/>
<glyph unicode="S" horiz-adv-x="586" d="M40 205h169q2 -30 23 -48.5t62 -18.5q35 0 60 16t25 46q0 9 -2 15t-19 19t-48 23l-81 27q-55 15 -93 40t-55.5 54.5t-24.5 55.5t-7 53q0 94 68 152.5t173 58.5t171 -57.5t66 -157.5h-167q0 64 -72 64q-34 0 -53.5 -15t-19.5 -40q0 -37 64 -56l79 -25q191 -59 191 -210 q0 -72 -41 -121.5t-96 -69t-118 -19.5q-116 0 -185 58.5t-69 155.5z"/>
<glyph unicode="T" horiz-adv-x="577" d="M27 543v146h523v-146h-178v-543h-167v543h-178z"/>
<glyph unicode="U" horiz-adv-x="682" d="M69 251v438h168v-438q0 -45 31.5 -74t72.5 -29t72.5 29t31.5 74v438h168v-438q0 -115 -80.5 -187.5t-191.5 -72.5t-191.5 72.5t-80.5 187.5z"/>
<glyph unicode="V" horiz-adv-x="592" d="M12 689h174l110 -420l108 420h176l-211 -689h-147z"/>
<glyph unicode="W" horiz-adv-x="883" d="M-6 689h181l119 -392l78 293h139l77 -293l120 392h182l-234 -689h-129l-87 335l-84 -335h-130z"/>
<glyph unicode="X" horiz-adv-x="677" d="M2 0l237 366l-218 323h202l116 -191l117 191h200l-218 -323l238 -366h-197l-140 233l-141 -233h-196z"/>
<glyph unicode="Y" horiz-adv-x="663" d="M-22 689h199l153 -250l156 250h198l-269 -382v-307h-168v310z"/>
<glyph unicode="Z" horiz-adv-x="602" d="M41 0v123l295 421h-282v145h501v-123l-299 -420h299v-146h-514z"/>
<glyph unicode="[" horiz-adv-x="342" d="M68 -230v919h243v-108h-114v-700h114v-111h-243z"/>
<glyph unicode="\" horiz-adv-x="501" d="M29 689h116l327 -689h-116z"/>
<glyph unicode="]" horiz-adv-x="342" d="M31 -119h114v700h-114v108h243v-919h-243v111z"/>
<glyph unicode="_" horiz-adv-x="762" d="M57 -34h648v-107h-648v107z"/>
<glyph unicode="`" horiz-adv-x="547" d="M129 723h148l93 -174h-103z"/>
<glyph unicode="a" d="M33 234q0 109 68 176.5t159 67.5q37 0 72.5 -16t56.5 -46v50h159v-466h-159v53q-44 -62 -129 -62q-91 0 -159 67t-68 176zM195 233q0 -40 28.5 -68.5t68.5 -28.5t68.5 28.5t28.5 68.5t-28.5 68.5t-68.5 28.5t-68.5 -28.5t-28.5 -68.5z"/>
<glyph unicode="b" horiz-adv-x="609" d="M60 0v711h159v-288q50 55 129 55q91 0 159 -67.5t68 -176.5t-68 -176t-159 -67q-43 0 -81 19t-57 57v-67h-150zM219 233q0 -40 28.5 -68.5t68.5 -28.5t68.5 28.5t28.5 68.5t-28.5 68.5t-68.5 28.5t-68.5 -28.5t-28.5 -68.5z"/>
<glyph unicode="c" horiz-adv-x="526" d="M33 234q0 108 76 176t183 68q128 0 205 -115l-130 -78q-28 46 -82 46q-40 0 -68.5 -28.5t-28.5 -68.5t28.5 -68.5t68.5 -28.5q50 0 80 43l133 -74q-77 -115 -206 -115q-108 0 -183.5 67.5t-75.5 175.5z"/>
<glyph unicode="d" d="M33 234q0 109 68 176.5t159 67.5q79 0 129 -55v288h159v-711h-150v67q-19 -38 -57 -57t-81 -19q-91 0 -159 67t-68 176zM195 233q0 -40 28.5 -68.5t68.5 -28.5t68.5 28.5t28.5 68.5t-28.5 68.5t-68.5 28.5t-68.5 -28.5t-28.5 -68.5z"/>
<glyph unicode="e" horiz-adv-x="550" d="M33 236q0 107 72.5 174.5t175.5 67.5t172.5 -65.5t69.5 -172.5q0 -12 -3 -51h-334q4 -32 35.5 -51.5t71.5 -19.5q56 0 89 39q11 -9 56.5 -41t53.5 -38q-66 -87 -211 -87q-103 0 -175.5 68.5t-72.5 176.5zM186 278h186q-10 39 -38 54t-55 15q-16 0 -32.5 -4t-36 -21 t-24.5 -44z"/>
<glyph unicode="f" horiz-adv-x="382" d="M20 349v117h87v17q0 111 59.5 169.5t164.5 58.5h60v-151h-60q-29 0 -46.5 -19.5t-18.5 -57.5v-17h98v-117h-98v-349h-159v349h-87z"/>
<glyph unicode="g" d="M33 234q0 109 68 176.5t159 67.5q37 0 72.5 -16t56.5 -46v50h159v-407q0 -145 -69.5 -220.5t-198.5 -75.5q-81 0 -145 42.5t-92 110.5l134 54q12 -28 39.5 -45t63.5 -17q59 0 91 38t32 112q-38 -67 -143 -67q-91 0 -159 67t-68 176zM195 233q0 -40 28.5 -68.5t68.5 -28.5 t68.5 28.5t28.5 68.5t-28.5 68.5t-68.5 28.5t-68.5 -28.5t-28.5 -68.5z"/>
<glyph unicode="h" horiz-adv-x="590" d="M60 0v711h159v-318q11 40 52.5 62.5t78.5 22.5q92 0 139 -59.5t47 -170.5v-248h-159v243q0 38 -24 59.5t-52 21.5q-32 0 -57 -19.5t-25 -59.5v-245h-159z"/>
<glyph unicode="i" horiz-adv-x="279" d="M43 621q0 38 28.5 64t67.5 26q40 0 67.5 -26t27.5 -64t-27.5 -64.5t-67.5 -26.5q-39 0 -67.5 27t-28.5 64zM60 0v466h159v-466h-159z"/>
<glyph unicode="j" horiz-adv-x="279" d="M-65 -86h60q29 0 46.5 19.5t18.5 57.5v475h159v-475q0 -111 -59.5 -169.5t-164.5 -58.5h-60v151zM44 621q0 38 28.5 64t67.5 26q40 0 67.5 -26t27.5 -64t-27.5 -64.5t-67.5 -26.5q-39 0 -67.5 27t-28.5 64z"/>
<glyph unicode="k" horiz-adv-x="538" d="M60 0v711h159v-358l91 113h195l-172 -207l209 -259h-190l-133 168v-168h-159z"/>
<glyph unicode="l" horiz-adv-x="279" d="M60 0v711h159v-711h-159z"/>
<glyph unicode="m" horiz-adv-x="884" d="M60 0v466h159v-73q11 41 47 63t72 22q128 0 167 -99q25 50 64 74.5t75 24.5q101 0 143.5 -57.5t42.5 -172.5v-248h-159v243q0 42 -23 61.5t-53 19.5t-50 -18.5t-20 -60.5v-245h-160v243q0 42 -23 61.5t-53 19.5t-50 -18.5t-20 -60.5v-245h-159z"/>
<glyph unicode="n" horiz-adv-x="590" d="M60 0v466h159v-73q11 40 52.5 62.5t78.5 22.5q92 0 139 -59.5t47 -170.5v-248h-159v243q0 42 -23 61.5t-53 19.5q-32 0 -57 -19t-25 -60v-245h-159z"/>
<glyph unicode="o" horiz-adv-x="563" d="M33 234q0 108 72.5 176t174.5 68q103 0 176.5 -68t73.5 -176q0 -107 -73.5 -175t-176.5 -68q-102 0 -174.5 68t-72.5 175zM183 234q0 -40 28.5 -68.5t68.5 -28.5t68.5 28.5t28.5 68.5t-28.5 68.5t-68.5 28.5t-68.5 -28.5t-28.5 -68.5z"/>
<glyph unicode="p" horiz-adv-x="609" d="M60 -230v696h150v-67q19 39 57.5 59t80.5 20q91 0 159 -67t68 -176t-68 -176.5t-159 -67.5q-82 0 -129 52v-273h-159zM219 233q0 -39 28.5 -66.5t68.5 -27.5t68.5 28.5t28.5 68.5t-28.5 68.5t-68.5 28.5q-39 0 -68 -30t-29 -70z"/>
<glyph unicode="q" d="M33 235q0 109 68 176t159 67q42 0 80.5 -20t57.5 -59v67h150v-696h-159v273q-47 -52 -129 -52q-91 0 -159 67.5t-68 176.5zM195 236q0 -40 28.5 -68.5t68.5 -28.5t68.5 27.5t28.5 66.5q0 40 -29 70t-68 30q-40 0 -68.5 -28.5t-28.5 -68.5z"/>
<glyph unicode="r" horiz-adv-x="429" d="M60 0v466h151v-115q17 63 57.5 95t89.5 32q41 0 69 -13l-39 -150q-33 12 -72 12q-49 0 -73 -37.5t-24 -136.5v-153h-159z"/>
<glyph unicode="s" horiz-adv-x="481" d="M34 156h149q0 -18 13.5 -33t40.5 -15q20 0 34.5 8.5t14.5 22.5q0 10 -8 15t-34 12l-59 16q-41 11 -70.5 29t-43.5 33t-21.5 37t-8 32t-0.5 26q0 54 56.5 96.5t133.5 42.5q39 0 73.5 -8.5t65 -26.5t48 -50.5t17.5 -75.5h-149q0 42 -47 42q-39 0 -39 -26q0 -22 35 -30 l83 -23q42 -11 70.5 -30.5t40 -41.5t15.5 -38t4 -31q0 -72 -64 -110t-147 -38q-80 0 -141.5 44.5t-61.5 120.5z"/>
<glyph unicode="t" horiz-adv-x="378" d="M20 349v117h85v167h157v-167h98v-117h-98v-349h-157v349h-85z"/>
<glyph unicode="u" horiz-adv-x="590" d="M54 221v245h159v-240q0 -42 23 -61.5t53 -19.5q33 0 57.5 17.5t24.5 58.5v245h159v-466h-159v73q-11 -40 -52 -61t-79 -21q-92 0 -139 59.5t-47 170.5z"/>
<glyph unicode="v" horiz-adv-x="529" d="M-2 466h171l96 -265l94 265h172l-199 -466h-136z"/>
<glyph unicode="w" horiz-adv-x="759" d="M5 466h170l70 -257l71 257h125l71 -257l70 257h170l-160 -466h-135l-78 279l-74 -279h-135z"/>
<glyph unicode="x" horiz-adv-x="544" d="M2 0l184 252l-155 214h183l60 -88l57 88h182l-154 -214l182 -252h-182l-87 128l-87 -128h-183z"/>
<glyph unicode="y" horiz-adv-x="518" d="M-4 466h174l91 -226l87 226h169l-288 -696h-167l117 292z"/>
<glyph unicode="z" horiz-adv-x="512" d="M40 0v114l197 208h-184v144h412v-116l-200 -206h200v-144h-425z"/>
<glyph unicode="{" horiz-adv-x="414" d="M27 187v85q23 0 42 16t19 45v154q-1 90 58.5 146t145.5 56h93v-108h-80q-46 0 -67 -28.5t-21 -72.5v-136q0 -49 -29.5 -79t-61.5 -36q32 -5 61.5 -35t29.5 -79v-136q0 -44 21 -72.5t67 -28.5h80v-108h-93q-86 0 -145.5 56t-58.5 146v154q0 29 -19 45t-42 16z"/>
<glyph unicode="|" horiz-adv-x="213" d="M68 -126v931h77v-931h-77z"/>
<glyph unicode="}" horiz-adv-x="414" d="M29 -122h80q46 0 67 28.5t21 72.5v136q0 49 29.5 79t61.5 35q-32 6 -61.5 36t-29.5 79v136q0 44 -21 72.5t-67 28.5h-80v108h93q86 0 145.5 -56t58.5 -146v-154q0 -29 19 -45t42 -16v-85q-23 0 -42 -16t-19 -45v-154q1 -90 -58.5 -146t-145.5 -56h-93v108z"/>
<glyph unicode="&#xa1;" horiz-adv-x="279" d="M44 385q0 40 27.5 66.5t66.5 26.5q40 0 68 -26.5t28 -66.5q0 -39 -28 -65t-68 -26q-39 0 -66.5 26t-27.5 65zM56 -229l18 458h131l18 -458h-167z"/>
<glyph unicode="&#xa2;" horiz-adv-x="540" d="M37 234q0 94 59 158.5t149 80.5v125h77v-122q110 -11 179 -113l-130 -78q-28 46 -82 46q-40 0 -68.5 -28.5t-28.5 -68.5t28.5 -68.5t68.5 -28.5q50 0 80 43l133 -74q-70 -103 -180 -113v-119h-77v122q-90 15 -149 79t-59 159z"/>
<glyph unicode="&#xa3;" horiz-adv-x="702" d="M38 0v133h112v163h-78v64h78v118q0 100 59.5 160t156.5 60q239 0 239 -241h-158q0 81 -71 81q-30 0 -48 -22t-18 -54v-102h100v-64h-100v-163h167q17 0 22.5 10.5t5.5 30.5v50h156v-86q0 -58 -41.5 -98t-96.5 -40h-485z"/>
<glyph unicode="&#xa4;" horiz-adv-x="616" d="M61 161l71 72q-29 46 -29 106q0 59 30 107l-72 72l69 69l72 -72q50 30 106 30q59 0 107 -30l71 72l69 -69l-72 -73q31 -52 31 -106q0 -59 -30 -106l71 -72l-69 -69l-71 72q-48 -30 -107 -30t-107 30l-71 -72zM231 339q0 -32 22.5 -54.5t54.5 -22.5q33 0 55.5 22.5 t22.5 54.5q0 33 -22.5 55.5t-55.5 22.5q-32 0 -54.5 -22.5t-22.5 -55.5z"/>
<glyph unicode="&#xa5;" horiz-adv-x="766" d="M30 689h199l153 -250l156 250h198l-254 -362h131v-70h-145v-99h145v-69h-145v-89h-170v89h-145v69h145v99h-145v70h132z"/>
<glyph unicode="&#xa6;" horiz-adv-x="217" d="M70 -126v382h77v-382h-77zM70 426v379h77v-379h-77z"/>
<glyph unicode="&#xa7;" horiz-adv-x="556" d="M53 278v204q0 96 63.5 156t155.5 60q78 0 142 -45t77 -132l-131 -39q-10 42 -35 60t-53 18q-33 0 -56.5 -22t-23.5 -56v-204q0 -39 25.5 -58.5t63.5 -19.5q24 0 39 2v-136q-22 -5 -48 -5q-92 0 -155.5 60t-63.5 157zM65 -31l131 39q10 -42 35 -60t53 -18q33 0 56.5 22 t23.5 56v204q0 39 -25.5 58.5t-63.5 19.5q-24 0 -39 -2v136q22 5 48 5q92 0 155.5 -60t63.5 -157v-204q0 -96 -63.5 -156t-155.5 -60q-78 0 -142 45t-77 132z"/>
<glyph unicode="&#xa8;" horiz-adv-x="580" d="M120 641q0 30 22.5 51t54.5 21q31 0 53 -21t22 -51q0 -31 -21.5 -52t-53.5 -21t-54.5 21t-22.5 52zM308 641q0 30 23 51t55 21q31 0 52.5 -21t21.5 -51q0 -31 -21.5 -52t-52.5 -21q-32 0 -55 21t-23 52z"/>
<glyph unicode="&#xa9;" horiz-adv-x="792" d="M47 343q0 147 101.5 250.5t247.5 103.5t248 -103.5t102 -250.5t-102 -250t-248 -103t-247.5 103t-101.5 250zM125 343q0 -114 79 -194t192 -80t192 80t79 194t-79 194.5t-192 80.5t-192 -80.5t-79 -194.5zM222 340q0 74 50 125.5t123 51.5q93 0 146 -79l-66 -46 q-35 46 -80 46q-39 0 -64 -28t-25 -70q0 -40 25 -68t64 -28q47 0 81 46l67 -45q-24 -37 -64 -59.5t-84 -22.5q-73 0 -123 52t-50 125z"/>
<glyph unicode="&#xaa;" horiz-adv-x="473" d="M51 484q0 78 49 126t120 48q55 0 95 -38v31h86v-335h-86v33q-40 -40 -95 -40q-70 0 -119.5 48.5t-49.5 126.5zM66 198v68h335v-68h-335zM138 485q0 -39 25 -64.5t62 -25.5q38 0 64 24.5t26 65.5q0 40 -27.5 63.5t-62.5 23.5q-37 0 -62 -24.5t-25 -62.5z"/>
<glyph unicode="&#xab;" horiz-adv-x="528" d="M36 233l138 207h119l-138 -207l138 -207h-119zM231 233l138 207h119l-138 -207l138 -207h-119z"/>
<glyph unicode="&#xac;" horiz-adv-x="620" d="M64 245v134h485v-281h-135v147h-350z"/>
<glyph unicode="&#xad;" horiz-adv-x="471" d="M58 175v135h355v-135h-355z"/>
<glyph unicode="&#xae;" horiz-adv-x="792" d="M47 343q0 147 101.5 250.5t247.5 103.5t248 -103.5t102 -250.5t-102 -250t-248 -103t-247.5 103t-101.5 250zM125 343q0 -114 79 -194t192 -80t192 80t79 194t-79 194.5t-192 80.5t-192 -80.5t-79 -194.5zM274 174v339h142q56 0 86.5 -33.5t30.5 -80.5q0 -39 -20.5 -69.5 t-57.5 -42.5l84 -113h-101l-73 109h-7v-109h-84zM358 357h53q16 0 26 13t10 29q0 13 -9.5 26t-23.5 13h-56v-81z"/>
<glyph unicode="&#xaf;" horiz-adv-x="528" d="M120 579v87h288v-87h-288z"/>
<glyph unicode="&#xb0;" horiz-adv-x="368" d="M40 529q0 59 42 101.5t101 42.5q60 0 102.5 -42.5t42.5 -101.5q0 -60 -42.5 -102.5t-102.5 -42.5q-59 0 -101 42.5t-42 102.5zM122 529q0 -27 17.5 -45t43.5 -18q27 0 45 18t18 45q0 26 -18 44t-45 18q-25 0 -43 -18t-18 -44z"/>
<glyph unicode="&#xb1;" horiz-adv-x="544" d="M65 -1v110h414v-110h-414zM65 298v108h153v140h108v-140h153v-108h-153v-142h-108v142h-153z"/>
<glyph unicode="&#xb2;" horiz-adv-x="343" d="M29 485v61l166 187q13 19 4 35t-31 16q-35 0 -41 -40l-98 14q20 126 147 126q54 0 93 -34.5t39 -87.5q-1 -57 -41 -98l-85 -88h128v-91h-281z"/>
<glyph unicode="&#xb3;" horiz-adv-x="337" d="M16 548l54 54q27 -37 79 -37q30 0 45 13.5t15 33.5q0 18 -19 29t-45 11h-42v74h42q45 0 45 37q0 12 -11 21.5t-33 9.5q-38 0 -60 -25l-55 57q41 58 133 58q54 0 91.5 -33.5t36.5 -77.5q0 -48 -56 -76q70 -26 73 -88t-43 -95.5t-113 -33.5q-104 0 -137 68z"/>
<glyph unicode="&#xb4;" horiz-adv-x="547" d="M129 549l93 174h148l-138 -174h-103z"/>
<glyph unicode="&#xb5;" horiz-adv-x="598" d="M68 -190v656h159v-243q0 -42 23 -61.5t53 -19.5q32 0 57 19t25 60v245h159v-466h-159v73q-11 -40 -52.5 -62.5t-78.5 -22.5q-24 0 -49 5v-183h-137z"/>
<glyph unicode="&#xb6;" horiz-adv-x="747" d="M33 472q0 90 63 153.5t154 63.5h101v-735h-111v301q-86 5 -146.5 68t-60.5 149zM238 -117h142q20 0 31 13t11 33v760h153q58 0 97.5 -41t39.5 -96v-86h-98v73q0 19 -13.5 30.5t-32.5 11.5h-40v-658q0 -54 -39 -95.5t-98 -41.5h-153v97z"/>
<glyph unicode="&#xb7;" horiz-adv-x="287" d="M49 387q0 39 27.5 65t66.5 26t67 -26t28 -65q0 -40 -28 -66t-67 -26q-40 0 -67 26t-27 66z"/>
<glyph unicode="&#xb8;" horiz-adv-x="534" d="M161 -87l70 -4q-4 -42 25 -52q24 -8 38 13q12 17 2 44l-54 109h67l54 -83q11 -20 11 -51q0 -44 -31 -74.5t-73 -30.5q-46 0 -78.5 33t-30.5 96z"/>
<glyph unicode="&#xb9;" horiz-adv-x="243" d="M20 712v87l176 91v-405h-106v259z"/>
<glyph unicode="&#xba;" horiz-adv-x="460" d="M55 485q0 77 50.5 125t123.5 48q74 0 125 -48t51 -125q0 -78 -51.5 -127t-124.5 -49t-123.5 49t-50.5 127zM62 198v68h335v-68h-335zM140 485q0 -40 25.5 -65t63.5 -25t63.5 25t25.5 65q0 39 -25.5 63t-63.5 24t-63.5 -24t-25.5 -63z"/>
<glyph unicode="&#xbb;" horiz-adv-x="528" d="M40 26l138 207l-138 207h119l138 -207l-138 -207h-119zM235 26l138 207l-138 207h119l138 -207l-138 -207h-119z"/>
<glyph unicode="&#xbc;" horiz-adv-x="830" d="M38 489v87l176 91v-405h-106v259zM110 -9l452 676h93l-451 -676h-94zM446 93l161 301h141v-214h45v-87h-45v-93h-105v93h-197zM581 180h62v122z"/>
<glyph unicode="&#xbd;" horiz-adv-x="835" d="M37 489v87l176 91v-405h-106v259zM109 -9l452 676h93l-451 -676h-94zM511 0v61l166 187q13 20 4 35.5t-31 15.5q-35 0 -41 -40l-98 14q20 126 147 126q54 0 93 -34.5t39 -87.5q-1 -57 -41 -98l-85 -88h128v-91h-281z"/>
<glyph unicode="&#xbe;" horiz-adv-x="922" d="M36 325l54 54q27 -37 79 -37q30 0 45 13.5t15 33.5q0 19 -19 29.5t-45 10.5h-42v74h42q45 0 45 37q0 12 -11 21.5t-33 9.5q-38 0 -60 -25l-55 57q41 58 133 58q54 0 91.5 -33.5t36.5 -77.5q0 -48 -56 -76q70 -26 73 -88t-43 -95.5t-113 -33.5q-104 0 -137 68zM202 -9 l452 676h93l-451 -676h-94zM538 93l161 301h141v-214h45v-87h-45v-93h-105v93h-197zM673 180h62v122z"/>
<glyph unicode="&#xbf;" horiz-adv-x="487" d="M32 -40q0 71 34 119t94 70q30 11 41 29.5t11 54.5h143v-12q0 -35 -2.5 -57t-12.5 -48t-32 -45.5t-57 -34.5l-37 -16q-34 -14 -34 -50q0 -26 18 -40t48 -14q26 0 45 18t19 46h144q0 -104 -57 -159.5t-154 -55.5q-95 0 -153 53t-58 142zM186 385q0 40 28 66.5t68 26.5 q39 0 66.5 -26.5t27.5 -66.5q0 -39 -27.5 -65t-66.5 -26q-40 0 -68 26t-28 65z"/>
<glyph unicode="&#xc0;" horiz-adv-x="667" d="M-11 0l254 689h182l253 -689h-177l-58 158h-217l-58 -158h-179zM167 923h148l93 -174h-103zM271 302h129l-67 227z"/>
<glyph unicode="&#xc1;" horiz-adv-x="667" d="M-11 0l254 689h182l253 -689h-177l-58 158h-217l-58 -158h-179zM243 749l93 174h148l-138 -174h-103zM271 302h129l-67 227z"/>
<glyph unicode="&#xc2;" horiz-adv-x="667" d="M-11 0l254 689h182l253 -689h-177l-58 158h-217l-58 -158h-179zM146 757l109 173h156l110 -173h-108l-80 89l-80 -89h-107zM271 302h129l-67 227z"/>
<glyph unicode="&#xc3;" horiz-adv-x="667" d="M-11 0l254 689h182l253 -689h-177l-58 158h-217l-58 -158h-179zM189 754q3 67 33.5 98.5t67.5 31.5q23 0 50 -20.5t37 -20.5q8 0 16.5 10t9.5 31h75q-3 -66 -33.5 -97t-67.5 -31q-22 0 -49.5 20.5t-37.5 20.5q-8 0 -16.5 -11t-9.5 -32h-75zM271 302h129l-67 227z"/>
<glyph unicode="&#xc4;" horiz-adv-x="667" d="M-11 0l254 689h182l253 -689h-177l-58 158h-217l-58 -158h-179zM163 841q0 30 22.5 51t54.5 21q31 0 53 -21t22 -51q0 -31 -21.5 -52t-53.5 -21t-54.5 21t-22.5 52zM271 302h129l-67 227zM351 841q0 30 23 51t55 21q31 0 52.5 -21t21.5 -51q0 -31 -21.5 -52t-52.5 -21 q-32 0 -55 21t-23 52z"/>
<glyph unicode="&#xc5;" horiz-adv-x="667" d="M-11 0l254 689h182l253 -689h-177l-58 158h-217l-58 -158h-179zM206 873q0 54 36.5 91.5t89.5 37.5q54 0 91 -37.5t37 -91.5q0 -53 -37 -90t-91 -37q-53 0 -89.5 37t-36.5 90zM268 873q0 -28 18.5 -46.5t45.5 -18.5q28 0 47.5 18.5t19.5 46.5t-19.5 48t-47.5 20 q-27 0 -45.5 -19.5t-18.5 -48.5zM271 302h129l-67 227z"/>
<glyph unicode="&#xc6;" horiz-adv-x="936" d="M-28 0l435 689h472v-146h-281v-132h246v-141h-246v-124h289v-146h-457v1l-1 -1v152h-160l-95 -152h-202zM333 296h96v188z"/>
<glyph unicode="&#xc7;" horiz-adv-x="708" d="M38 344q0 147 102.5 250.5t248.5 103.5q91 0 168.5 -42.5t125.5 -115.5l-139 -97q-24 40 -65.5 63.5t-89.5 23.5q-76 0 -129 -54.5t-53 -131.5t53 -131t129 -54q49 0 90 23t66 63l137 -96q-47 -70 -121 -112.5t-161 -45.5l34 -51q11 -20 11 -51q0 -44 -31 -74.5 t-73 -30.5q-46 0 -78.5 33t-30.5 96l70 -4q-4 -42 25 -52q24 -8 38 13q12 17 2 44l-41 83q-124 22 -206 120t-82 227z"/>
<glyph unicode="&#xc8;" horiz-adv-x="581" d="M77 0v689h447v-146h-280v-132h246v-143h-246v-122h289v-146h-456zM131 923h148l93 -174h-103z"/>
<glyph unicode="&#xc9;" horiz-adv-x="581" d="M77 0v689h447v-146h-280v-132h246v-143h-246v-122h289v-146h-456zM209 749l93 174h148l-138 -174h-103z"/>
<glyph unicode="&#xca;" horiz-adv-x="581" d="M77 0v689h447v-146h-280v-132h246v-143h-246v-122h289v-146h-456zM98 757l109 173h156l110 -173h-108l-80 89l-80 -89h-107z"/>
<glyph unicode="&#xcb;" horiz-adv-x="581" d="M77 0v689h447v-146h-280v-132h246v-143h-246v-122h289v-146h-456zM115 841q0 30 22.5 51t54.5 21q31 0 53 -21t22 -51q0 -31 -21.5 -52t-53.5 -21t-54.5 21t-22.5 52zM303 841q0 30 23 51t55 21q31 0 52.5 -21t21.5 -51q0 -31 -21.5 -52t-52.5 -21q-32 0 -55 21t-23 52z "/>
<glyph unicode="&#xcc;" horiz-adv-x="321" d="M4 923h148l93 -174h-103zM77 0v689h167v-689h-167z"/>
<glyph unicode="&#xcd;" horiz-adv-x="321" d="M76 749l93 174h148l-138 -174h-103zM77 0v689h167v-689h-167z"/>
<glyph unicode="&#xce;" horiz-adv-x="321" d="M-27 757l109 173h156l110 -173h-108l-80 89l-80 -89h-107zM77 0v689h167v-689h-167z"/>
<glyph unicode="&#xcf;" horiz-adv-x="321" d="M-9 841q0 30 22.5 51t54.5 21q31 0 53 -21t22 -51q0 -31 -21.5 -52t-53.5 -21t-54.5 21t-22.5 52zM77 0v689h167v-689h-167zM179 841q0 30 23 51t55 21q31 0 52.5 -21t21.5 -51q0 -31 -21.5 -52t-52.5 -21q-32 0 -55 21t-23 52z"/>
<glyph unicode="&#xd0;" horiz-adv-x="722" d="M0 282v101h94v306h273q145 0 229 -97.5t84 -248.5q0 -150 -83.5 -246.5t-229.5 -96.5h-273v282h-94zM262 149h105q69 0 107.5 56.5t38.5 137.5q0 82 -38.5 139.5t-107.5 57.5h-105v-157h106v-101h-106v-133z"/>
<glyph unicode="&#xd1;" horiz-adv-x="678" d="M77 0v689h151l206 -371v371h167v-689h-146l-211 376v-376h-167zM194 754q3 67 33.5 98.5t67.5 31.5q23 0 50 -20.5t37 -20.5q8 0 16.5 10t9.5 31h75q-3 -66 -33.5 -97t-67.5 -31q-22 0 -50 20.5t-37 20.5q-8 0 -16.5 -11t-9.5 -32h-75z"/>
<glyph unicode="&#xd2;" horiz-adv-x="779" d="M38 344q0 147 102.5 250.5t248.5 103.5q147 0 249.5 -103.5t102.5 -250.5q0 -146 -102.5 -249.5t-249.5 -103.5q-145 0 -248 103.5t-103 249.5zM183 923h148l93 -174h-103zM207 344q0 -77 53 -131t129 -54q77 0 130.5 54t53.5 131t-54 131.5t-130 54.5t-129 -54.5 t-53 -131.5z"/>
<glyph unicode="&#xd3;" horiz-adv-x="779" d="M38 344q0 147 102.5 250.5t248.5 103.5q147 0 249.5 -103.5t102.5 -250.5q0 -146 -102.5 -249.5t-249.5 -103.5q-145 0 -248 103.5t-103 249.5zM207 344q0 -77 53 -131t129 -54q77 0 130.5 54t53.5 131t-54 131.5t-130 54.5t-129 -54.5t-53 -131.5zM343 749l93 174h148 l-138 -174h-103z"/>
<glyph unicode="&#xd4;" horiz-adv-x="779" d="M38 344q0 147 102.5 250.5t248.5 103.5q147 0 249.5 -103.5t102.5 -250.5q0 -146 -102.5 -249.5t-249.5 -103.5q-145 0 -248 103.5t-103 249.5zM202 757l109 173h156l110 -173h-108l-80 89l-80 -89h-107zM207 344q0 -77 53 -131t129 -54q77 0 130.5 54t53.5 131 t-54 131.5t-130 54.5t-129 -54.5t-53 -131.5z"/>
<glyph unicode="&#xd5;" horiz-adv-x="779" d="M38 344q0 147 102.5 250.5t248.5 103.5q147 0 249.5 -103.5t102.5 -250.5q0 -146 -102.5 -249.5t-249.5 -103.5q-145 0 -248 103.5t-103 249.5zM207 344q0 -77 53 -131t129 -54q77 0 130.5 54t53.5 131t-54 131.5t-130 54.5t-129 -54.5t-53 -131.5zM245 754 q3 67 33.5 98.5t67.5 31.5q23 0 50 -20.5t37 -20.5q8 0 16.5 10t9.5 31h75q-3 -66 -33.5 -97t-67.5 -31q-21 0 -49 20.5t-38 20.5q-8 0 -16.5 -11t-9.5 -32h-75z"/>
<glyph unicode="&#xd6;" horiz-adv-x="779" d="M38 344q0 147 102.5 250.5t248.5 103.5q147 0 249.5 -103.5t102.5 -250.5q0 -146 -102.5 -249.5t-249.5 -103.5q-145 0 -248 103.5t-103 249.5zM207 344q0 -77 53 -131t129 -54q77 0 130.5 54t53.5 131t-54 131.5t-130 54.5t-129 -54.5t-53 -131.5zM219 841q0 30 22.5 51 t54.5 21q31 0 53 -21t22 -51q0 -31 -21.5 -52t-53.5 -21t-54.5 21t-22.5 52zM407 841q0 30 23 51t55 21q31 0 52.5 -21t21.5 -51q0 -31 -21.5 -52t-52.5 -21q-32 0 -55 21t-23 52z"/>
<glyph unicode="&#xd7;" horiz-adv-x="486" d="M53 366l76 77l113 -113l114 114l76 -76l-114 -115l114 -112l-76 -77l-114 113l-112 -110l-76 77l111 109z"/>
<glyph unicode="&#xd8;" horiz-adv-x="778" d="M37 344q0 147 102.5 250.5t248.5 103.5q128 0 223 -81l79 81l47 -46l-80 -82q83 -101 83 -226q0 -146 -102.5 -249.5t-249.5 -103.5q-123 0 -218 77l-81 -83l-47 47l80 82q-85 101 -85 230zM206 344q0 -60 33 -109l255 261q-44 35 -106 35q-76 0 -129 -54.5t-53 -132.5z M286 189q46 -31 102 -31q76 0 130 54.5t54 131.5q0 57 -33 104z"/>
<glyph unicode="&#xd9;" horiz-adv-x="682" d="M69 251v438h168v-438q0 -45 31.5 -74t72.5 -29t72.5 29t31.5 74v438h168v-438q0 -115 -80.5 -187.5t-191.5 -72.5t-191.5 72.5t-80.5 187.5zM171 923h148l93 -174h-103z"/>
<glyph unicode="&#xda;" horiz-adv-x="682" d="M69 251v438h168v-438q0 -45 31.5 -74t72.5 -29t72.5 29t31.5 74v438h168v-438q0 -115 -80.5 -187.5t-191.5 -72.5t-191.5 72.5t-80.5 187.5zM276 749l93 174h148l-138 -174h-103z"/>
<glyph unicode="&#xdb;" horiz-adv-x="682" d="M69 251v438h168v-438q0 -45 31.5 -74t72.5 -29t72.5 29t31.5 74v438h168v-438q0 -115 -80.5 -187.5t-191.5 -72.5t-191.5 72.5t-80.5 187.5zM153 757l109 173h156l110 -173h-108l-80 89l-80 -89h-107z"/>
<glyph unicode="&#xdc;" horiz-adv-x="682" d="M69 251v438h168v-438q0 -45 31.5 -74t72.5 -29t72.5 29t31.5 74v438h168v-438q0 -115 -80.5 -187.5t-191.5 -72.5t-191.5 72.5t-80.5 187.5zM171 841q0 30 22.5 51t54.5 21q31 0 53 -21t22 -51q0 -31 -21.5 -52t-53.5 -21t-54.5 21t-22.5 52zM359 841q0 30 23 51t55 21 q31 0 52.5 -21t21.5 -51q0 -31 -21.5 -52t-52.5 -21q-32 0 -55 21t-23 52z"/>
<glyph unicode="&#xdd;" horiz-adv-x="663" d="M-22 689h199l153 -250l156 250h198l-269 -382v-307h-168v310zM262 749l93 174h148l-138 -174h-103z"/>
<glyph unicode="&#xde;" horiz-adv-x="575" d="M77 0v689h167v-111h80q97 0 162.5 -62.5t65.5 -165.5t-65.5 -167.5t-162.5 -64.5h-80v-118h-167zM244 256h65q36 0 58 24.5t22 66.5q0 43 -22 68t-58 25h-65v-184z"/>
<glyph unicode="&#xdf;" horiz-adv-x="591" d="M60 0v455q0 242 221 242q98 0 159 -54t61 -122q0 -109 -68 -134q55 -13 90 -60.5t35 -108.5q0 -101 -57.5 -164t-172.5 -63q-43 0 -76 10l37 141q25 -3 40 -3q34 0 57 25.5t23 57.5q0 10 -3 22t-11.5 28t-28 26.5t-47.5 10.5h-37v135h21q24 0 36.5 15t12.5 40 q0 18 -15.5 35t-50.5 17q-67 0 -67 -96v-455h-159z"/>
<glyph unicode="&#xe0;" d="M33 234q0 109 68 176.5t159 67.5q37 0 72.5 -16t56.5 -46v50h159v-466h-159v53q-44 -62 -129 -62q-91 0 -159 67t-68 176zM151 723h148l93 -174h-103zM195 233q0 -40 28.5 -68.5t68.5 -28.5t68.5 28.5t28.5 68.5t-28.5 68.5t-68.5 28.5t-68.5 -28.5t-28.5 -68.5z"/>
<glyph unicode="&#xe1;" d="M33 234q0 109 68 176.5t159 67.5q37 0 72.5 -16t56.5 -46v50h159v-466h-159v53q-44 -62 -129 -62q-91 0 -159 67t-68 176zM195 233q0 -40 28.5 -68.5t68.5 -28.5t68.5 28.5t28.5 68.5t-28.5 68.5t-68.5 28.5t-68.5 -28.5t-28.5 -68.5zM227 549l93 174h148l-138 -174h-103 z"/>
<glyph unicode="&#xe2;" d="M33 234q0 109 68 176.5t159 67.5q37 0 72.5 -16t56.5 -46v50h159v-466h-159v53q-44 -62 -129 -62q-91 0 -159 67t-68 176zM118 557l109 173h156l110 -173h-108l-80 89l-80 -89h-107zM195 233q0 -40 28.5 -68.5t68.5 -28.5t68.5 28.5t28.5 68.5t-28.5 68.5t-68.5 28.5 t-68.5 -28.5t-28.5 -68.5z"/>
<glyph unicode="&#xe3;" d="M33 234q0 109 68 176.5t159 67.5q37 0 72.5 -16t56.5 -46v50h159v-466h-159v53q-44 -62 -129 -62q-91 0 -159 67t-68 176zM161 554q3 67 33.5 98.5t67.5 31.5q23 0 50 -20.5t37 -20.5q8 0 16.5 10t9.5 31h75q-3 -66 -33.5 -97t-67.5 -31q-21 0 -49 20.5t-38 20.5 q-8 0 -16.5 -11t-9.5 -32h-75zM195 233q0 -40 28.5 -68.5t68.5 -28.5t68.5 28.5t28.5 68.5t-28.5 68.5t-68.5 28.5t-68.5 -28.5t-28.5 -68.5z"/>
<glyph unicode="&#xe4;" d="M33 234q0 109 68 176.5t159 67.5q37 0 72.5 -16t56.5 -46v50h159v-466h-159v53q-44 -62 -129 -62q-91 0 -159 67t-68 176zM135 641q0 30 22.5 51t54.5 21q31 0 53 -21t22 -51q0 -31 -21.5 -52t-53.5 -21t-54.5 21t-22.5 52zM195 233q0 -40 28.5 -68.5t68.5 -28.5 t68.5 28.5t28.5 68.5t-28.5 68.5t-68.5 28.5t-68.5 -28.5t-28.5 -68.5zM323 641q0 30 23 51t55 21q31 0 52.5 -21t21.5 -51q0 -31 -21.5 -52t-52.5 -21q-32 0 -55 21t-23 52z"/>
<glyph unicode="&#xe5;" d="M33 234q0 109 68 176.5t159 67.5q37 0 72.5 -16t56.5 -46v50h159v-466h-159v53q-44 -62 -129 -62q-91 0 -159 67t-68 176zM178 673q0 54 36.5 91.5t89.5 37.5q54 0 91 -37.5t37 -91.5q0 -53 -37 -90t-91 -37q-53 0 -89.5 37t-36.5 90zM195 233q0 -40 28.5 -68.5 t68.5 -28.5t68.5 28.5t28.5 68.5t-28.5 68.5t-68.5 28.5t-68.5 -28.5t-28.5 -68.5zM240 673q0 -28 18.5 -46.5t45.5 -18.5q28 0 47.5 18.5t19.5 46.5t-19.5 48t-47.5 20q-27 0 -45.5 -19.5t-18.5 -48.5z"/>
<glyph unicode="&#xe6;" horiz-adv-x="984" d="M33 234q0 109 68 176.5t159 67.5q37 0 72.5 -16t56.5 -46v50h159v-47q68 59 167 59q103 0 172.5 -65.5t69.5 -172.5q0 -12 -3 -51h-334q4 -32 35.5 -51.5t71.5 -19.5q56 0 89 39q11 -9 56.5 -41t53.5 -38q-66 -87 -211 -87q-98 0 -167 60v-51h-159v53q-44 -62 -129 -62 q-91 0 -159 67t-68 176zM195 233q0 -40 28.5 -68.5t68.5 -28.5t68.5 28.5t28.5 68.5t-28.5 68.5t-68.5 28.5t-68.5 -28.5t-28.5 -68.5zM620 278h186q-10 39 -38 54t-55 15q-16 0 -32.5 -4t-36 -21t-24.5 -44z"/>
<glyph unicode="&#xe7;" horiz-adv-x="526" d="M33 234q0 108 76 176t183 68q128 0 205 -115l-139 -84q-22 42 -77 42q-35 0 -60.5 -26t-25.5 -61t25.5 -61t60.5 -26q54 0 75 38l142 -79q-72 -108 -193 -114l36 -52q11 -18 11 -51q0 -44 -31 -74.5t-73 -30.5q-46 0 -78.5 33t-30.5 96l70 -4q-4 -42 25 -52q24 -8 38 13 q12 17 2 44l-43 84q-86 18 -142 81t-56 155z"/>
<glyph unicode="&#xe8;" horiz-adv-x="550" d="M33 236q0 107 72.5 174.5t175.5 67.5t172.5 -65.5t69.5 -172.5q0 -12 -3 -51h-334q4 -32 35.5 -51.5t71.5 -19.5q56 0 89 39q11 -9 56.5 -41t53.5 -38q-66 -87 -211 -87q-103 0 -175.5 68.5t-72.5 176.5zM102 723h148l93 -174h-103zM186 278h186q-10 39 -38 54t-55 15 q-16 0 -32.5 -4t-36 -21t-24.5 -44z"/>
<glyph unicode="&#xe9;" horiz-adv-x="550" d="M33 236q0 107 72.5 174.5t175.5 67.5t172.5 -65.5t69.5 -172.5q0 -12 -3 -51h-334q4 -32 35.5 -51.5t71.5 -19.5q56 0 89 39q11 -9 56.5 -41t53.5 -38q-66 -87 -211 -87q-103 0 -175.5 68.5t-72.5 176.5zM186 278h186q-10 39 -38 54t-55 15q-16 0 -32.5 -4t-36 -21 t-24.5 -44zM222 549l93 174h148l-138 -174h-103z"/>
<glyph unicode="&#xea;" horiz-adv-x="550" d="M33 236q0 107 72.5 174.5t175.5 67.5t172.5 -65.5t69.5 -172.5q0 -12 -3 -51h-334q4 -32 35.5 -51.5t71.5 -19.5q56 0 89 39q11 -9 56.5 -41t53.5 -38q-66 -87 -211 -87q-103 0 -175.5 68.5t-72.5 176.5zM91 557l109 173h156l110 -173h-108l-80 89l-80 -89h-107zM186 278 h186q-10 39 -38 54t-55 15q-16 0 -32.5 -4t-36 -21t-24.5 -44z"/>
<glyph unicode="&#xeb;" horiz-adv-x="550" d="M33 236q0 107 72.5 174.5t175.5 67.5t172.5 -65.5t69.5 -172.5q0 -12 -3 -51h-334q4 -32 35.5 -51.5t71.5 -19.5q56 0 89 39q11 -9 56.5 -41t53.5 -38q-66 -87 -211 -87q-103 0 -175.5 68.5t-72.5 176.5zM108 641q0 30 22.5 51t54.5 21q31 0 53 -21t22 -51 q0 -31 -21.5 -52t-53.5 -21t-54.5 21t-22.5 52zM186 278h186q-10 39 -38 54t-55 15q-16 0 -32.5 -4t-36 -21t-24.5 -44zM296 641q0 30 23 51t55 21q31 0 52.5 -21t21.5 -51q0 -31 -21.5 -52t-52.5 -21q-32 0 -55 21t-23 52z"/>
<glyph unicode="&#xec;" horiz-adv-x="277" d="M-24 723h148l93 -174h-103zM60 0v467h157v-467h-157z"/>
<glyph unicode="&#xed;" horiz-adv-x="277" d="M60 0v467h157v-467h-157zM61 549l93 174h148l-138 -174h-103z"/>
<glyph unicode="&#xee;" horiz-adv-x="277" d="M-50 557l109 173h156l110 -173h-108l-80 89l-80 -89h-107zM60 0v467h157v-467h-157z"/>
<glyph unicode="&#xef;" horiz-adv-x="277" d="M-32 641q0 30 22.5 51t54.5 21q31 0 53 -21t22 -51q0 -31 -21.5 -52t-53.5 -21t-54.5 21t-22.5 52zM60 0v467h157v-467h-157zM156 641q0 30 23 51t55 21q31 0 52.5 -21t21.5 -51q0 -31 -21.5 -52t-52.5 -21q-32 0 -55 21t-23 52z"/>
<glyph unicode="&#xf0;" horiz-adv-x="552" d="M34 233q0 85 47.5 146t125.5 79q32 6 64 7l-52 71l-85 -33l-27 49l81 31l-74 106h145l42 -62l78 34l34 -46l-81 -34l140 -203q46 -66 46 -145q0 -108 -70.5 -175t-172.5 -67q-101 0 -171 67t-70 175zM191 233q0 -39 24.5 -62.5t59.5 -23.5q36 0 60.5 23.5t24.5 62.5 q0 37 -24.5 60t-60.5 23q-35 0 -59.5 -23t-24.5 -60z"/>
<glyph unicode="&#xf1;" horiz-adv-x="590" d="M60 0v466h159v-73q11 40 52.5 62.5t78.5 22.5q92 0 139 -59.5t47 -170.5v-248h-159v243q0 42 -23 61.5t-53 19.5q-32 0 -57 -19t-25 -60v-245h-159zM151 554q3 67 33.5 98.5t67.5 31.5q23 0 50 -20.5t37 -20.5q8 0 16.5 10t9.5 31h75q-3 -66 -33.5 -97t-67.5 -31 q-21 0 -49 20.5t-38 20.5q-8 0 -16.5 -11t-9.5 -32h-75z"/>
<glyph unicode="&#xf2;" horiz-adv-x="563" d="M33 234q0 108 72.5 176t174.5 68q103 0 176.5 -68t73.5 -176q0 -107 -73.5 -175t-176.5 -68q-102 0 -174.5 68t-72.5 175zM85 723h148l93 -174h-103zM183 234q0 -40 28.5 -68.5t68.5 -28.5t68.5 28.5t28.5 68.5t-28.5 68.5t-68.5 28.5t-68.5 -28.5t-28.5 -68.5z"/>
<glyph unicode="&#xf3;" horiz-adv-x="563" d="M33 234q0 108 72.5 176t174.5 68q103 0 176.5 -68t73.5 -176q0 -107 -73.5 -175t-176.5 -68q-102 0 -174.5 68t-72.5 175zM183 234q0 -40 28.5 -68.5t68.5 -28.5t68.5 28.5t28.5 68.5t-28.5 68.5t-68.5 28.5t-68.5 -28.5t-28.5 -68.5zM218 549l93 174h148l-138 -174h-103 z"/>
<glyph unicode="&#xf4;" horiz-adv-x="563" d="M33 234q0 108 72.5 176t174.5 68q103 0 176.5 -68t73.5 -176q0 -107 -73.5 -175t-176.5 -68q-102 0 -174.5 68t-72.5 175zM94 557l109 173h156l110 -173h-108l-80 89l-80 -89h-107zM183 234q0 -40 28.5 -68.5t68.5 -28.5t68.5 28.5t28.5 68.5t-28.5 68.5t-68.5 28.5 t-68.5 -28.5t-28.5 -68.5z"/>
<glyph unicode="&#xf5;" horiz-adv-x="563" d="M33 234q0 108 72.5 176t174.5 68q103 0 176.5 -68t73.5 -176q0 -107 -73.5 -175t-176.5 -68q-102 0 -174.5 68t-72.5 175zM137 554q3 67 33.5 98.5t67.5 31.5q23 0 50 -20.5t37 -20.5q8 0 16.5 10t9.5 31h75q-3 -66 -33.5 -97t-67.5 -31q-21 0 -49 20.5t-38 20.5 q-8 0 -16.5 -11t-9.5 -32h-75zM183 234q0 -40 28.5 -68.5t68.5 -28.5t68.5 28.5t28.5 68.5t-28.5 68.5t-68.5 28.5t-68.5 -28.5t-28.5 -68.5z"/>
<glyph unicode="&#xf6;" horiz-adv-x="563" d="M33 234q0 108 72.5 176t174.5 68q103 0 176.5 -68t73.5 -176q0 -107 -73.5 -175t-176.5 -68q-102 0 -174.5 68t-72.5 175zM112 641q0 30 22.5 51t54.5 21q31 0 53 -21t22 -51q0 -31 -21.5 -52t-53.5 -21t-54.5 21t-22.5 52zM183 234q0 -40 28.5 -68.5t68.5 -28.5 t68.5 28.5t28.5 68.5t-28.5 68.5t-68.5 28.5t-68.5 -28.5t-28.5 -68.5zM300 641q0 30 23 51t55 21q31 0 52.5 -21t21.5 -51q0 -31 -21.5 -52t-52.5 -21q-32 0 -55 21t-23 52z"/>
<glyph unicode="&#xf7;" horiz-adv-x="621" d="M50 218v102h521v-102h-521zM226 73q0 35 24 57.5t59 22.5t59.5 -22.5t24.5 -57.5t-24.5 -58.5t-59.5 -23.5t-59 23.5t-24 58.5zM226 460q0 34 24 57t59 23t59.5 -23t24.5 -57q0 -36 -24.5 -58.5t-59.5 -22.5t-59 22.5t-24 58.5z"/>
<glyph unicode="&#xf8;" horiz-adv-x="563" d="M33 234q0 108 72.5 176t174.5 68q85 0 153 -49l51 52l41 -40l-50 -51q55 -66 55 -156q0 -107 -73.5 -175t-176.5 -68q-84 0 -148 46l-55 -56l-41 41l53 54q-56 66 -56 158zM183 234q0 -28 13 -48l130 133q-24 12 -46 12q-40 0 -68.5 -28.5t-28.5 -68.5zM238 146 q20 -9 42 -9q40 0 68.5 28.5t28.5 68.5q0 22 -11 44z"/>
<glyph unicode="&#xf9;" horiz-adv-x="590" d="M54 221v245h159v-240q0 -42 23 -61.5t53 -19.5q33 0 57.5 17.5t24.5 58.5v245h159v-466h-159v73q-11 -40 -52 -61t-79 -21q-92 0 -139 59.5t-47 170.5zM125 723h148l93 -174h-103z"/>
<glyph unicode="&#xfa;" horiz-adv-x="590" d="M54 221v245h159v-240q0 -42 23 -61.5t53 -19.5q33 0 57.5 17.5t24.5 58.5v245h159v-466h-159v73q-11 -40 -52 -61t-79 -21q-92 0 -139 59.5t-47 170.5zM231 549l93 174h148l-138 -174h-103z"/>
<glyph unicode="&#xfb;" horiz-adv-x="590" d="M54 221v245h159v-240q0 -42 23 -61.5t53 -19.5q33 0 57.5 17.5t24.5 58.5v245h159v-466h-159v73q-11 -40 -52 -61t-79 -21q-92 0 -139 59.5t-47 170.5zM102 557l109 173h156l110 -173h-108l-80 89l-80 -89h-107z"/>
<glyph unicode="&#xfc;" horiz-adv-x="590" d="M54 221v245h159v-240q0 -42 23 -61.5t53 -19.5q33 0 57.5 17.5t24.5 58.5v245h159v-466h-159v73q-11 -40 -52 -61t-79 -21q-92 0 -139 59.5t-47 170.5zM132 641q0 30 22.5 51t54.5 21q31 0 53 -21t22 -51q0 -31 -21.5 -52t-53.5 -21t-54.5 21t-22.5 52zM320 641 q0 30 23 51t55 21q31 0 52.5 -21t21.5 -51q0 -31 -21.5 -52t-52.5 -21q-32 0 -55 21t-23 52z"/>
<glyph unicode="&#xfd;" horiz-adv-x="518" d="M-4 466h174l91 -226l87 226h169l-288 -696h-167l117 292zM183 549l93 174h148l-138 -174h-103z"/>
<glyph unicode="&#xfe;" horiz-adv-x="609" d="M60 -230v941h159v-288q50 55 129 55q91 0 159 -67.5t68 -176.5t-68 -176t-159 -67q-43 0 -81 19t-57 57v-297h-150zM219 233q0 -40 28.5 -68.5t68.5 -28.5t68.5 28.5t28.5 68.5t-28.5 68.5t-68.5 28.5t-68.5 -28.5t-28.5 -68.5z"/>
<glyph unicode="&#xff;" horiz-adv-x="518" d="M-4 466h174l91 -226l87 226h169l-288 -696h-167l117 292zM89 641q0 30 22.5 51t54.5 21q31 0 53 -21t22 -51q0 -31 -21.5 -52t-53.5 -21t-54.5 21t-22.5 52zM277 641q0 30 23 51t55 21q31 0 52.5 -21t21.5 -51q0 -31 -21.5 -52t-52.5 -21q-32 0 -55 21t-23 52z"/>
<glyph unicode="&#x152;" horiz-adv-x="1078" d="M38 344q0 147 102.5 250.5t248.5 103.5q98 0 185 -53v44h447v-146h-280v-132h246v-143h-246v-122h289v-146h-456v43q-85 -52 -185 -52q-145 0 -248 103.5t-103 249.5zM207 344q0 -77 53 -131t129 -54q77 0 130.5 54t53.5 131t-54 131.5t-130 54.5t-129 -54.5t-53 -131.5z "/>
<glyph unicode="&#x153;" horiz-adv-x="896" d="M33 234q0 108 72.5 176t174.5 68t173 -65q71 65 174 65t172.5 -65.5t69.5 -172.5q0 -12 -3 -51h-334q4 -32 35.5 -51.5t71.5 -19.5q56 0 89 39q11 -9 56.5 -41t53.5 -38q-66 -87 -211 -87q-102 0 -173 66q-72 -66 -174 -66t-174.5 68t-72.5 175zM183 234 q0 -40 28.5 -68.5t68.5 -28.5t68.5 28.5t28.5 68.5t-28.5 68.5t-68.5 28.5t-68.5 -28.5t-28.5 -68.5zM532 278h186q-10 39 -38 54t-55 15q-16 0 -32.5 -4t-36 -21t-24.5 -44z"/>
<glyph unicode="&#x178;" horiz-adv-x="663" d="M-22 689h199l153 -250l156 250h198l-269 -382v-307h-168v310zM161 841q0 30 22.5 51t54.5 21q31 0 53 -21t22 -51q0 -31 -21.5 -52t-53.5 -21t-54.5 21t-22.5 52zM349 841q0 30 23 51t55 21q31 0 52.5 -21t21.5 -51q0 -31 -21.5 -52t-52.5 -21q-32 0 -55 21t-23 52z"/>
<glyph unicode="&#x2c6;" horiz-adv-x="585" d="M105 557l109 173h156l110 -173h-108l-80 89l-80 -89h-107z"/>
<glyph unicode="&#x2dc;" horiz-adv-x="449" d="M80 554q3 67 33.5 98.5t67.5 31.5q23 0 50 -20.5t37 -20.5q8 0 16.5 10t9.5 31h75q-3 -66 -33.5 -97t-67.5 -31q-22 0 -50 20.5t-37 20.5q-8 0 -16.5 -11t-9.5 -32h-75z"/>
<glyph unicode="&#x2000;" horiz-adv-x="501"/>
<glyph unicode="&#x2001;" horiz-adv-x="1002"/>
<glyph unicode="&#x2002;" horiz-adv-x="501"/>
<glyph unicode="&#x2003;" horiz-adv-x="1002"/>
<glyph unicode="&#x2004;" horiz-adv-x="334"/>
<glyph unicode="&#x2005;" horiz-adv-x="250"/>
<glyph unicode="&#x2006;" horiz-adv-x="167"/>
<glyph unicode="&#x2007;" horiz-adv-x="167"/>
<glyph unicode="&#x2008;" horiz-adv-x="125"/>
<glyph unicode="&#x2009;" horiz-adv-x="200"/>
<glyph unicode="&#x200a;" horiz-adv-x="55"/>
<glyph unicode="&#x2010;" horiz-adv-x="471" d="M58 175v135h355v-135h-355z"/>
<glyph unicode="&#x2011;" horiz-adv-x="471" d="M58 175v135h355v-135h-355z"/>
<glyph unicode="&#x2012;" horiz-adv-x="471" d="M58 175v135h355v-135h-355z"/>
<glyph unicode="&#x2013;" horiz-adv-x="654" d="M58 172v135h538v-135h-538z"/>
<glyph unicode="&#x2014;" horiz-adv-x="870" d="M58 171v135h754v-135h-754z"/>
<glyph unicode="&#x2018;" horiz-adv-x="266" d="M51 462q0 90 37.5 158t85.5 109l65 -40q-64 -88 -64 -227h-124z"/>
<glyph unicode="&#x2019;" horiz-adv-x="257" d="M35 463q64 88 64 227h124q0 -90 -37.5 -158t-85.5 -109z"/>
<glyph unicode="&#x201a;" horiz-adv-x="260" d="M8 -98q64 88 64 227h124q0 -90 -37.5 -158t-85.5 -109z"/>
<glyph unicode="&#x201c;" horiz-adv-x="441" d="M51 462q0 90 37.5 158t85.5 109l65 -40q-64 -88 -64 -227h-124zM226 462q0 90 37.5 158t85.5 109l65 -40q-64 -88 -64 -227h-124z"/>
<glyph unicode="&#x201d;" horiz-adv-x="432" d="M35 463q64 88 64 227h124q0 -90 -37.5 -158t-85.5 -109zM210 463q64 88 64 227h124q0 -90 -37.5 -158t-85.5 -109z"/>
<glyph unicode="&#x201e;" horiz-adv-x="435" d="M8 -98q64 88 64 227h124q0 -90 -37.5 -158t-85.5 -109zM183 -98q64 88 64 227h124q0 -90 -37.5 -158t-85.5 -109z"/>
<glyph unicode="&#x2022;" horiz-adv-x="490" d="M81 238q0 67 48 112.5t116 45.5t116 -45.5t48 -112.5q0 -68 -48 -113.5t-116 -45.5t-116 45.5t-48 113.5z"/>
<glyph unicode="&#x2026;" horiz-adv-x="927" d="M49 84q0 39 27.5 65t66.5 26q40 0 68 -26t28 -65q0 -40 -28 -66.5t-68 -26.5q-39 0 -66.5 26.5t-27.5 66.5zM369 84q0 39 27.5 65t66.5 26q40 0 68 -26t28 -65q0 -40 -28 -66.5t-68 -26.5q-39 0 -66.5 26.5t-27.5 66.5zM689 84q0 39 27.5 65t66.5 26t67 -26t28 -65 q0 -40 -28 -66.5t-67 -26.5t-66.5 26.5t-27.5 66.5z"/>
<glyph unicode="&#x202f;" horiz-adv-x="200"/>
<glyph unicode="&#x2039;" horiz-adv-x="333" d="M36 233l138 207h119l-138 -207l138 -207h-119z"/>
<glyph unicode="&#x203a;" horiz-adv-x="333" d="M40 26l138 207l-138 207h119l138 -207l-138 -207h-119z"/>
<glyph unicode="&#x205f;" horiz-adv-x="250"/>
<glyph unicode="&#x20ac;" horiz-adv-x="834" d="M41 257v66h486v-66h-211q22 -51 66.5 -80t100.5 -29q54 0 98 26t68 70l140 -89q-43 -76 -124 -120t-182 -44q-125 0 -219.5 74.5t-123.5 191.5h-99zM41 373v66h101q29 114 123.5 186.5t217.5 72.5q100 0 179.5 -42.5t122.5 -115.5l-141 -89q-24 42 -66 65.5t-95 23.5 q-55 0 -97.5 -27t-65.5 -74h207v-66h-486z"/>
<glyph unicode="&#x2122;" horiz-adv-x="842" d="M60 606v83h388l105 -215l103 215h79l44 -366h-93l-23 203l-76 -163h-66l-78 164l-23 -204h-92l35 283h-95v-283h-92v283h-116z"/>
<glyph unicode="&#xe000;" horiz-adv-x="465" d="M0 0v465h465v-465h-465z"/>
</font>
</defs>
</svg>
