<?xml version="1.0" standalone="no"?>
<!DOCTYPE svg PUBLIC "-//W3C//DTD SVG 1.1//EN" "http://www.w3.org/Graphics/SVG/1.1/DTD/svg11.dtd" >
<svg xmlns="http://www.w3.org/2000/svg">
<metadata></metadata>
<defs>
<font id="sofia_pro_mediumitalic" horiz-adv-x="572" >
<font-face units-per-em="1000" ascent="750" descent="-250"/>
<missing-glyph horiz-adv-x="254"/>
<glyph unicode="&#xfb01;" horiz-adv-x="640" d="M92 382l15 85h88l8 43q19 99 75.5 155t149.5 56h51l-17 -99h-51q-82 0 -103 -112l-8 -43h351l-82 -467h-102l67 382h-249l-67 -382h-104l67 382h-89zM564 656q4 27 28.5 46t52.5 19t44.5 -18.5t11.5 -46.5q-4 -28 -27.5 -46.5t-52.5 -18.5q-28 0 -44.5 18.5t-12.5 46.5z "/>
<glyph unicode="&#xfb02;" horiz-adv-x="629" d="M92 382l15 85h88l8 43q19 99 75.5 155t149.5 56h256l-127 -721h-103l110 622h-153q-82 0 -103 -112l-8 -43h105l-15 -85h-105l-67 -382h-104l67 382h-89z"/>
<glyph unicode="&#xfb03;" horiz-adv-x="1011" d="M92 382l15 85h88l8 43q19 99 75.5 155t149.5 56h51l-17 -99h-51q-82 0 -103 -112l-8 -43h266l8 43q19 99 75.5 155t149.5 56h51l-17 -99h-51q-82 0 -103 -112l-8 -43h351l-82 -467h-102l67 382h-249l-67 -382h-104l67 382h-267l-67 -382h-104l67 382h-89zM935 656 q4 27 28.5 46t52.5 19t44.5 -18.5t11.5 -46.5q-4 -28 -27.5 -46.5t-52.5 -18.5q-28 0 -44.5 18.5t-12.5 46.5z"/>
<glyph unicode="&#xfb04;" horiz-adv-x="1000" d="M92 382l15 85h88l8 43q19 99 75.5 155t149.5 56h51l-17 -99h-51q-82 0 -103 -112l-8 -43h266l8 43q19 99 75.5 155t149.5 56h256l-127 -721h-103l110 622h-153q-82 0 -103 -112l-8 -43h105l-15 -85h-105l-67 -382h-104l67 382h-267l-67 -382h-104l67 382h-89z"/>
<glyph horiz-adv-x="1000"/>
<glyph horiz-adv-x="1000"/>
<glyph unicode="&#xd;" horiz-adv-x="1000"/>
<glyph unicode=" "  horiz-adv-x="254"/>
<glyph unicode="&#x09;" horiz-adv-x="254"/>
<glyph unicode="&#xa0;" horiz-adv-x="254"/>
<glyph unicode="!" horiz-adv-x="268" d="M73 58q5 29 29 48.5t53 19.5q30 0 47.5 -19.5t12.5 -48.5t-29 -48t-54 -19q-29 0 -46.5 19t-12.5 48zM124 185l74 504h111l-103 -504h-82z"/>
<glyph unicode="&#x22;" horiz-adv-x="356" d="M147 399l45 290h78l-57 -290h-66zM283 399l45 290h78l-57 -290h-66z"/>
<glyph unicode="#" horiz-adv-x="674" d="M66 168l38 87h107l78 173h-105l40 87h106l79 174h93l-79 -174h106l79 174h93l-79 -174h107l-41 -87h-108l-79 -173h108l-39 -87h-108l-79 -168h-91l77 168h-105l-79 -168h-91l78 168h-106zM303 255h105l79 173h-106z"/>
<glyph unicode="$" horiz-adv-x="564" d="M79 200h106q-6 -44 26 -78.5t91 -34.5q57 0 95 26.5t52 67.5q19 86 -89 112l-84 22q-162 46 -137 185q14 79 81.5 132.5t153.5 62.5l19 102h65l-19 -103q81 -11 122.5 -64.5t26.5 -136.5h-106q9 47 -19.5 75.5t-82.5 28.5q-48 0 -87.5 -26.5t-47.5 -68.5q-12 -66 75 -90 l85 -23q97 -26 133.5 -82t14.5 -132q-21 -76 -85.5 -126.5t-152.5 -57.5l-20 -111h-65l20 112q-90 10 -137.5 69.5t-33.5 138.5z"/>
<glyph unicode="%" horiz-adv-x="684" d="M131 536q11 56 56 95t101 39t88 -39.5t22 -94.5q-10 -56 -56 -94.5t-102 -38.5t-87.5 38.5t-21.5 94.5zM139 0l444 668h67l-445 -668h-66zM204 536q-5 -26 9.5 -43t40.5 -17q25 0 46 17.5t25 42.5t-10.5 43t-39.5 18q-26 0 -46 -17.5t-25 -43.5zM401 123q10 56 55.5 95 t101.5 39q55 0 87.5 -39t22.5 -95t-56 -94.5t-102 -38.5t-87.5 38.5t-21.5 94.5zM474 123q-5 -26 9 -43t40 -17t47 17t26 43q5 25 -10.5 43t-40.5 18t-45.5 -18t-25.5 -43z"/>
<glyph unicode="&#x26;" horiz-adv-x="666" d="M90 205q11 59 46.5 106t90.5 74q-24 20 -33.5 56t-2.5 76q14 73 76 124.5t140 52.5q54 1 95.5 -25t62.5 -71l-94 -52q-25 49 -75 49q-39 0 -67 -23.5t-34 -57.5q-6 -33 11.5 -64t57.5 -31h130l16 87h96l-16 -87h86l-14 -83h-86l-23 -128q-12 -64 3 -94.5t76 -30.5 l-16 -93q-130 0 -154 77q-31 -36 -81 -56.5t-102 -20.5q-99 0 -152.5 61.5t-36.5 153.5zM194 208q-8 -53 21.5 -86t86.5 -33q66 0 107.5 43.5t54.5 118.5l15 85h-132q-60 0 -103 -39.5t-50 -88.5z"/>
<glyph unicode="'" horiz-adv-x="220" d="M147 399l45 290h78l-57 -290h-66z"/>
<glyph unicode="(" horiz-adv-x="367" d="M86 231q38 212 139 339t229 127l-16 -94q-84 0 -157 -104.5t-102 -267.5t7 -266.5t120 -103.5l-17 -94q-128 0 -184.5 126.5t-18.5 337.5z"/>
<glyph unicode=")" horiz-adv-x="367" d="M-4 -233l14 94q83 0 156 103.5t102 266.5t-7 267.5t-119 104.5l17 94q128 0 184 -127t18 -339q-38 -211 -138.5 -337.5t-226.5 -126.5z"/>
<glyph unicode="*" horiz-adv-x="472" d="M145 536l42 78l115 -49l15 134h84l-32 -133l135 48l10 -78l-134 -35l66 -107l-75 -46l-53 111l-97 -113l-55 49l104 104z"/>
<glyph unicode="+" horiz-adv-x="515" d="M89 216l16 91h160l29 160h91l-29 -160h160l-16 -91h-160l-28 -161h-91l28 161h-160z"/>
<glyph unicode="," horiz-adv-x="259" d="M-7 -104q91 106 109 230h108q-21 -91 -64 -156.5t-89 -97.5z"/>
<glyph unicode="-" horiz-adv-x="481" d="M99 190l17 93h349l-17 -93h-349z"/>
<glyph unicode="." horiz-adv-x="266" d="M73 57q5 29 28.5 48.5t52.5 19.5q30 0 47.5 -19.5t12.5 -48.5t-29.5 -48t-54.5 -19q-29 0 -45.5 19t-11.5 48z"/>
<glyph unicode="/" horiz-adv-x="502" d="M31 0l459 689h102l-459 -689h-102z"/>
<glyph unicode="0" horiz-adv-x="604" d="M121 325q13 74 34.5 131.5t55.5 106t86.5 74t121.5 25.5t112.5 -26.5t60 -72t19 -107t-12.5 -131.5q-13 -74 -34.5 -131t-55.5 -105t-86.5 -73.5t-121.5 -25.5t-112.5 26.5t-60 72t-19 106.5t12.5 130zM223 325q-42 -235 95 -235q136 0 178 235t-94 235q-137 0 -179 -235 z"/>
<glyph unicode="1" horiz-adv-x="344" d="M126 482l16 95l226 83l-117 -660h-102l91 521z"/>
<glyph unicode="2" horiz-adv-x="532" d="M58 0l8 49l323 320q54 52 62 99q7 42 -19 68t-72 26q-43 0 -79 -27.5t-50 -72.5l-94 21q28 82 94.5 131t147.5 49q88 0 138.5 -55t35.5 -140q-15 -87 -101 -168q-40 -39 -96.5 -94t-108.5 -106h237l-17 -100h-409z"/>
<glyph unicode="3" horiz-adv-x="538" d="M59 122l100 48q7 -31 40.5 -55.5t67.5 -24.5q60 0 96 28t44 72q7 42 -18.5 76.5t-79.5 33.5h-73l17 95h73q36 -1 61.5 22t35.5 52q21 62 -32 85q-14 7 -44 7q-57 1 -101 -51l-68 57q36 47 92.5 73.5t116.5 22.5q79 -4 121.5 -57t30.5 -124q-7 -38 -35 -72.5t-67 -56.5 q45 -18 64.5 -67t9.5 -104q-16 -89 -89 -140.5t-173 -51.5q-74 0 -124 36.5t-66 95.5z"/>
<glyph unicode="4" horiz-adv-x="591" d="M45 137l439 516h88l-76 -423h91l-15 -93h-91l-24 -137h-102l24 137h-334zM223 230h171l47 255z"/>
<glyph unicode="5" horiz-adv-x="569" d="M69 135q12 5 49.5 25.5t46.5 24.5q11 -43 43 -69t75 -26q72 0 117 35.5t55 89.5q10 58 -22 89.5t-88 31.5q-79 0 -168 -59l-53 45l114 331h357l-16 -97h-274l-60 -165q23 16 59.5 26.5t67.5 10.5q95 0 148 -56.5t36 -156.5q-18 -101 -98 -163t-193 -62q-68 0 -121.5 39.5 t-74.5 105.5z"/>
<glyph unicode="6" horiz-adv-x="561" d="M104 215q7 67 19.5 126t38 121t59.5 105t86.5 70t117.5 25q63 -3 106 -30t62 -96l-99 -40q-21 70 -90 70q-68 0 -119.5 -63t-60.5 -156q56 74 153 74q85 0 132 -63.5t30 -159.5q-19 -90 -93 -149t-167 -59q-88 0 -136.5 61.5t-38.5 163.5zM209 211q-9 -50 18 -84t74 -35 q47 -2 87.5 30.5t48.5 80.5q8 49 -16 83.5t-71 35.5q-48 1 -90.5 -32t-50.5 -79z"/>
<glyph unicode="7" horiz-adv-x="532" d="M57 0l388 554h-293l18 99h462l-456 -653h-119z"/>
<glyph unicode="8" horiz-adv-x="570" d="M89 207q10 54 44 98.5t85 72.5q-40 45 -28 114q12 71 73 121t138 50t121 -50t32 -121q-12 -66 -71 -114q42 -28 60 -72.5t8 -98.5q-17 -91 -94.5 -154t-174.5 -63t-153.5 63t-39.5 154zM192 208q-9 -50 22 -84.5t85 -34.5t97.5 34.5t52.5 84.5q8 48 -22 83t-82 35h-11 q-51 0 -92.5 -35.5t-49.5 -82.5zM290 491q-5 -33 14 -54.5t55 -21.5q35 1 61.5 23t31.5 53q5 30 -14 51.5t-54 21.5t-62 -21.5t-32 -51.5z"/>
<glyph unicode="9" horiz-adv-x="561" d="M80 116l101 40q21 -70 90 -70q68 0 118.5 63t59.5 156q-50 -74 -152 -74q-85 0 -131.5 63.5t-29.5 159.5q19 90 92.5 149t166.5 59q88 0 136.5 -61.5t38.5 -163.5q-7 -67 -19.5 -126t-37.5 -121t-59 -105t-87 -70t-118 -25q-63 3 -106.5 30.5t-62.5 95.5zM238 449 q-9 -49 15.5 -83.5t71.5 -35.5q47 -2 89.5 31.5t50.5 79.5q9 50 -18 83.5t-73 35.5q-48 1 -87.5 -31t-48.5 -80z"/>
<glyph unicode=":" horiz-adv-x="273" d="M76 57q5 29 29 48.5t53 19.5t46.5 -19.5t12.5 -48.5t-29.5 -48t-53.5 -19q-30 0 -46.5 19t-11.5 48zM138 409q5 30 29 49t54 19q29 0 46 -19.5t12 -48.5t-29 -48.5t-53 -19.5q-30 0 -47 19.5t-12 48.5z"/>
<glyph unicode=";" horiz-adv-x="286" d="M2 -104q93 104 111 230h111q-20 -91 -63 -156.5t-89 -97.5zM149 409q5 29 29.5 48.5t54.5 19.5q29 0 46 -19.5t12 -48.5t-29 -48.5t-53 -19.5q-30 0 -47.5 19.5t-12.5 48.5z"/>
<glyph unicode="&#x3c;" horiz-adv-x="614" d="M82 230l17 93l539 193l-17 -100l-400 -139l350 -141l-18 -100z"/>
<glyph unicode="=" horiz-adv-x="606" d="M93 120l16 89h460l-16 -89h-460zM128 315l15 89h460l-15 -89h-460z"/>
<glyph unicode="&#x3e;" horiz-adv-x="614" d="M71 36l17 100l401 141l-351 139l18 100l471 -193l-17 -93z"/>
<glyph unicode="?" horiz-adv-x="487" d="M128 488q17 94 84.5 151.5t152.5 57.5q88 0 138.5 -53.5t34.5 -141.5q-13 -70 -62 -120t-114 -69q-36 -10 -55 -26.5t-25 -49.5l-11 -51h-100l9 51q7 39 19 65t32.5 42.5t39.5 26.5t52.5 25.5t58.5 30.5q44 26 53 75q7 41 -19 67t-69 26q-42 0 -76.5 -29.5t-43.5 -77.5 h-99zM129 58q5 29 29 48.5t53 19.5q30 0 47.5 -19.5t12.5 -48.5t-29 -48t-54 -19q-29 0 -46.5 19t-12.5 48z"/>
<glyph unicode="@" horiz-adv-x="969" d="M92 253q32 182 180.5 310.5t329.5 128.5q185 0 296.5 -121.5t79.5 -300.5q-8 -47 -27 -94.5t-48 -92t-72.5 -72t-94.5 -27.5q-62 0 -96.5 34.5t-21.5 111.5l23 128q9 53 -21.5 89.5t-82.5 36.5t-95.5 -36.5t-52.5 -89.5q-9 -52 21.5 -88.5t82.5 -36.5q48 0 101 43 l-15 -88q-53 -30 -100 -30q-83 0 -131 58.5t-34 141.5q15 84 84 142.5t152 58.5q80 0 130 -56t38 -136l-26 -144q-12 -64 57 -64q33 0 61 21t45.5 55.5t28.5 67.5t17 67q27 148 -65.5 247.5t-246.5 99.5q-150 0 -272.5 -106.5t-149.5 -257.5q-26 -151 58.5 -255.5 t234.5 -104.5h25l-13 -76h-25q-182 0 -284.5 126.5t-70.5 309.5z"/>
<glyph unicode="A" horiz-adv-x="647" d="M6 0l381 689h115l139 -689h-112l-37 172h-278l-95 -172h-113zM267 267h206l-51 289z"/>
<glyph unicode="B" horiz-adv-x="629" d="M90 0l121 689h264q88 0 131 -49t28 -133q-18 -105 -113 -140q55 -13 80.5 -62.5t15.5 -102.5q-15 -85 -81.5 -143.5t-160.5 -58.5h-285zM213 97h173q46 0 79.5 32t40.5 74t-15.5 77t-68.5 35h-170zM268 406h153q40 0 67.5 28t34.5 69q7 42 -13 65.5t-63 23.5h-146z"/>
<glyph unicode="C" horiz-adv-x="684" d="M107 343q26 148 145 251t265 103q81 0 144 -33t100 -91l-92 -64q-61 86 -170 86q-102 0 -184.5 -73.5t-101.5 -178.5t38 -178t159 -73q114 0 201 90l71 -65q-56 -59 -131.5 -93t-158.5 -34q-146 0 -228.5 103t-56.5 250z"/>
<glyph unicode="D" horiz-adv-x="719" d="M90 0l121 689h268q144 0 210 -97.5t39 -248.5q-27 -150 -127 -246.5t-243 -96.5h-268zM212 98h162q98 0 163 68.5t85 176.5t-21 177.5t-139 69.5h-162z"/>
<glyph unicode="E" horiz-adv-x="567" d="M90 0l121 689h415l-17 -98h-309l-36 -204h270l-18 -97h-270l-34 -193h319l-16 -97h-425z"/>
<glyph unicode="F" horiz-adv-x="527" d="M90 0l121 689h409l-17 -98h-303l-36 -204h240l-18 -97h-240l-50 -290h-106z"/>
<glyph unicode="G" horiz-adv-x="755" d="M107 343q26 148 145.5 251t265.5 103q144 0 223 -97l-91 -69q-54 65 -150 65q-102 0 -185 -74t-102 -179t38.5 -179t159.5 -74q86 0 153 46.5t84 122.5h-193l15 91h315q-31 -179 -135 -269.5t-257 -90.5q-146 0 -229 103t-57 250z"/>
<glyph unicode="H" horiz-adv-x="705" d="M90 0l121 689h106l-52 -298h311l52 298h108l-121 -689h-108l51 294h-311l-51 -294h-106z"/>
<glyph unicode="I" horiz-adv-x="286" d="M90 0l121 689h106l-121 -689h-106z"/>
<glyph unicode="J" horiz-adv-x="287" d="M-140 -235l27 99q24 -9 69 -9q55 0 87 34.5t42 89.5l126 710h107l-126 -710q-18 -100 -81 -163t-173 -63q-28 0 -78 12z"/>
<glyph unicode="K" horiz-adv-x="583" d="M90 0l121 689h107l-50 -280l261 280h125l-325 -343l265 -346h-140l-208 279l-49 -279h-107z"/>
<glyph unicode="L" horiz-adv-x="499" d="M90 0l121 689h106l-105 -592h276l-16 -97h-382z"/>
<glyph unicode="M" horiz-adv-x="927" d="M51 0l205 689h94l148 -491l320 491h95l-37 -689h-106l27 492l-275 -415h-90l-130 415l-145 -492h-106z"/>
<glyph unicode="N" horiz-adv-x="681" d="M90 0l121 689h102l207 -489l86 489h106l-121 -689h-99l-210 493l-86 -493h-106z"/>
<glyph unicode="O" horiz-adv-x="792" d="M107 343q26 148 145 251t265 103q147 0 230.5 -103.5t57.5 -250.5t-146 -250t-267 -103q-146 0 -228.5 103t-56.5 250zM213 343q-19 -104 38 -176.5t159 -72.5t185.5 72.5t102.5 176.5t-39 177t-160 73t-185 -73t-101 -177z"/>
<glyph unicode="P" horiz-adv-x="607" d="M90 0l121 689h277q71 0 114 -32.5t55.5 -80.5t1.5 -106q-17 -91 -80 -154t-168 -63h-170l-44 -253h-107zM258 350h164q54 0 88 35.5t43 84.5q8 49 -12 85t-72 36h-168z"/>
<glyph unicode="Q" horiz-adv-x="794" d="M107 343q26 148 145.5 251t265.5 103q148 0 231.5 -103t57.5 -251q-16 -92 -73 -170.5t-140 -126.5l50 -113l-88 -49l-56 122q-49 -16 -107 -16q-146 0 -229 103t-57 250zM213 343q-17 -97 32.5 -167t142.5 -79q39 -3 72 2l-48 108l88 49l53 -121q57 33 96 88t51 120 q19 105 -39 178.5t-161 73.5q-102 0 -185.5 -73.5t-101.5 -178.5z"/>
<glyph unicode="R" horiz-adv-x="622" d="M90 0l121 689h269q104 0 145.5 -64t25.5 -155q-15 -83 -69.5 -143t-145.5 -70l136 -257h-129l-128 253h-74l-44 -253h-107zM258 350h154q54 0 87 35t42 85q8 49 -11.5 85t-70.5 36h-158z"/>
<glyph unicode="S" horiz-adv-x="574" d="M84 200h106q-6 -44 26 -78.5t91 -34.5q57 0 95 26.5t51 67.5q21 86 -89 112l-83 22q-162 46 -137 185q15 86 91.5 141.5t169.5 55.5q97 0 151 -55.5t37 -148.5h-106q9 47 -19.5 75.5t-82.5 28.5q-49 0 -88.5 -26.5t-46.5 -68.5q-15 -66 75 -90l85 -23q97 -27 133.5 -82.5 t13.5 -131.5q-22 -82 -95.5 -133.5t-171.5 -51.5q-105 0 -163 62t-43 148z"/>
<glyph unicode="T" horiz-adv-x="570" d="M132 590l17 99h514l-17 -99h-203l-104 -590h-108l104 590h-203z"/>
<glyph unicode="U" horiz-adv-x="677" d="M123 239l81 450h108l-81 -450q-11 -65 25.5 -106t97.5 -41t111 41t62 106l80 450h108l-80 -450q-20 -110 -106.5 -179.5t-192.5 -69.5q-107 0 -169.5 69.5t-43.5 179.5z"/>
<glyph unicode="V" horiz-adv-x="566" d="M146 689h111l56 -512l239 512h110l-329 -689h-99z"/>
<glyph unicode="W" horiz-adv-x="897" d="M132 689h114l73 -513l193 419h83l43 -419l255 513h114l-354 -689h-89l-44 413l-187 -413h-89z"/>
<glyph unicode="X" horiz-adv-x="624" d="M9 0l304 369l-158 320h128l109 -234l193 234h127l-271 -320l175 -369h-127l-128 282l-226 -282h-126z"/>
<glyph unicode="Y" horiz-adv-x="634" d="M121 689h127l142 -274l240 274h127l-331 -374l-55 -315h-109l56 316z"/>
<glyph unicode="Z" horiz-adv-x="577" d="M41 0l14 88l442 503h-338l17 98h474l-15 -89l-444 -502h354l-16 -98h-488z"/>
<glyph unicode="[" horiz-adv-x="328" d="M39 -227l163 916h208l-15 -88h-111l-132 -740h111l-16 -88h-208z"/>
<glyph unicode="\" horiz-adv-x="502" d="M152 689h102l217 -689h-102z"/>
<glyph unicode="]" horiz-adv-x="328" d="M-1 -227l14 88h111l132 740h-111l15 88h208l-163 -916h-206z"/>
<glyph unicode="_" horiz-adv-x="709" d="M45 -115l14 86h577l-14 -86h-577z"/>
<glyph unicode="`" horiz-adv-x="522" d="M252 698h116l72 -158h-90z"/>
<glyph unicode="a" horiz-adv-x="610" d="M83 234q19 108 100.5 175.5t179.5 67.5q46 0 87.5 -19.5t56.5 -56.5l11 66h102l-82 -467h-102l11 67q-29 -37 -76.5 -57t-93.5 -20q-98 0 -155.5 67.5t-38.5 176.5zM189 235q-11 -63 23.5 -104t94.5 -41t108.5 39.5t60.5 105.5q11 65 -25 103.5t-93 38.5 q-60 0 -108.5 -39.5t-60.5 -102.5z"/>
<glyph unicode="b" horiz-adv-x="608" d="M72 0l127 721h103l-56 -321q27 37 73 57t97 20q98 0 153.5 -67t35.5 -177q-19 -107 -99.5 -175t-177.5 -68q-49 0 -88 20.5t-54 57.5l-11 -68h-103zM216 235q-12 -66 23 -105.5t95 -39.5q59 0 107 40.5t59 104.5q12 63 -21.5 102.5t-93.5 39.5q-57 0 -107 -38.5 t-62 -103.5z"/>
<glyph unicode="c" horiz-adv-x="514" d="M82 235q19 108 103.5 175t188.5 67q117 0 172 -81l-92 -64q-33 45 -97 45q-61 0 -111 -39.5t-62 -102.5q-11 -64 25 -105t96 -41q67 0 113 46l70 -63q-84 -82 -200 -82q-103 0 -164 68.5t-42 176.5z"/>
<glyph unicode="d" horiz-adv-x="608" d="M83 233q20 109 99 176.5t177 67.5q51 0 91 -20t55 -57l56 321h102l-127 -721h-102l10 68q-28 -37 -75 -57.5t-96 -20.5q-97 0 -153 67.5t-37 175.5zM189 235q-11 -64 22.5 -104.5t92.5 -40.5t107.5 39.5t60.5 105.5q12 65 -24 103.5t-93 38.5q-60 0 -107 -39.5 t-59 -102.5z"/>
<glyph unicode="e" horiz-adv-x="553" d="M82 235q19 109 100 175.5t183 66.5t156 -66.5t35 -175.5q-5 -29 -8 -38h-371q-2 -53 32 -85t91 -32q40 0 78 18t61 49q30 -16 78 -37q-41 -59 -105 -89.5t-133 -30.5q-102 0 -159 68t-38 177zM191 272h271q1 54 -29 84.5t-83 30.5q-55 0 -98.5 -31t-60.5 -84z"/>
<glyph unicode="f" horiz-adv-x="347" d="M92 382l15 85h89l8 43q17 99 74 155t150 56h51l-17 -99h-51q-84 0 -103 -112l-8 -43h105l-15 -85h-105l-67 -382h-104l67 382h-89z"/>
<glyph unicode="g" horiz-adv-x="610" d="M46 -102q10 4 46.5 21.5t46.5 21.5q12 -36 45 -57t72 -21q157 0 189 184q2 16 4 24q-26 -38 -75 -59.5t-98 -21.5q-98 0 -155 67t-38 175q19 109 100.5 177t179.5 68q49 0 89 -21t55 -58l12 69h101l-71 -398q-53 -302 -310 -302q-68 0 -120 34.5t-73 96.5zM189 233 q-12 -64 22.5 -104t94.5 -40q56 0 107 39.5t62 104.5q12 67 -22 105.5t-95 38.5q-60 0 -109 -40.5t-60 -103.5z"/>
<glyph unicode="h" horiz-adv-x="578" d="M72 0l127 721h103l-57 -325q25 39 72.5 60t89.5 21q89 0 129 -55.5t22 -155.5l-46 -266h-103l45 260q9 53 -15 84.5t-69 31.5q-51 0 -95.5 -31t-55.5 -94l-44 -251h-103z"/>
<glyph unicode="i" horiz-adv-x="246" d="M72 0l82 467h102l-82 -467h-102zM170 656q4 27 28 46t52 19q29 0 45 -18.5t12 -46.5t-27.5 -46.5t-52.5 -18.5q-28 0 -44.5 18.5t-12.5 46.5z"/>
<glyph unicode="j" horiz-adv-x="248" d="M-102 -231l17 96h56q79 0 94 105l89 497h104l-88 -497q-36 -201 -204 -201h-68zM171 656q4 27 28 46t52 19q29 0 45.5 -18.5t12.5 -46.5q-4 -27 -28 -46t-53 -19q-28 0 -44.5 18.5t-12.5 46.5z"/>
<glyph unicode="k" horiz-adv-x="506" d="M72 0l127 721h102l-72 -408l175 154h138l-235 -203l198 -264h-132l-161 217l-38 -217h-102z"/>
<glyph unicode="l" horiz-adv-x="247" d="M72 0l127 721h103l-127 -721h-103z"/>
<glyph unicode="m" horiz-adv-x="873" d="M72 0l82 467h103l-12 -70q28 43 75 61.5t86 18.5q106 0 130 -93q67 93 174 93q86 0 123 -54t20 -154l-47 -269h-103l45 260q10 54 -12 85t-67 31q-51 0 -87.5 -34.5t-46.5 -90.5l-44 -251h-103l45 262q9 53 -12 83.5t-63 30.5q-50 0 -89 -30.5t-50 -94.5l-44 -251h-103z "/>
<glyph unicode="n" horiz-adv-x="563" d="M72 0l82 467h103l-12 -70q25 38 70 59t87 21q85 0 121.5 -53t19.5 -152l-47 -272h-103l45 260q10 55 -11 85.5t-67 30.5q-51 0 -90.5 -30.5t-50.5 -94.5l-44 -251h-103z"/>
<glyph unicode="o" d="M82 235q19 108 101.5 175t184.5 67q103 0 162 -67t40 -175t-102.5 -176.5t-185.5 -68.5t-160.5 68.5t-39.5 176.5zM184 235q-12 -64 22.5 -104.5t93.5 -40.5q60 0 107.5 40t59.5 105q11 63 -23 102t-94 39q-59 0 -107 -39t-59 -102z"/>
<glyph unicode="p" horiz-adv-x="606" d="M30 -227l124 694h103l-12 -69q28 37 75 58t95 21q97 0 152 -68t36 -176q-20 -109 -99 -176t-176 -67q-50 0 -89 20t-53 57l-53 -294h-103zM216 231q-11 -66 24 -104t92 -38q60 0 107.5 39.5t58.5 102.5q12 64 -21 105t-93 41q-59 0 -107.5 -40t-60.5 -106z"/>
<glyph unicode="q" horiz-adv-x="606" d="M83 233q19 108 99 176t177 68q49 0 89 -21.5t54 -57.5l11 69h103l-124 -694h-103l53 294q-27 -37 -73 -57t-96 -20q-98 0 -154 67t-36 176zM189 231q-11 -63 21.5 -102.5t92.5 -39.5q57 0 106.5 38.5t60.5 103.5q12 66 -21.5 106t-93.5 40q-59 0 -106.5 -41t-59.5 -105z "/>
<glyph unicode="r" horiz-adv-x="399" d="M72 0l82 467h103l-19 -107q55 117 149 117q56 0 79 -18l-33 -95q-30 16 -67 16q-63 0 -104 -57t-58 -155l-29 -168h-103z"/>
<glyph unicode="s" horiz-adv-x="444" d="M63 143h95q-2 -31 19 -49t61 -18q36 0 62.5 15t30.5 41q7 40 -55 55l-60 15q-69 20 -93 57t-9 95q13 52 68 87.5t120 35.5q69 0 112 -34t35 -104h-98q1 25 -16.5 37.5t-43.5 12.5q-36 0 -61.5 -18t-20.5 -50q4 -22 51 -36l68 -18q116 -30 98 -136q-12 -66 -70.5 -103.5 t-140.5 -37.5q-70 0 -116.5 41.5t-35.5 111.5z"/>
<glyph unicode="t" horiz-adv-x="336" d="M92 382l15 85h84l30 177h103l-30 -177h99l-15 -85h-99l-67 -382h-103l67 382h-84z"/>
<glyph unicode="u" horiz-adv-x="562" d="M101 195l48 272h103l-46 -260q-10 -56 11.5 -86.5t65.5 -30.5q51 0 90.5 30.5t50.5 95.5l45 251h103l-82 -467h-103l11 68q-25 -37 -69 -57.5t-84 -20.5q-86 0 -124.5 53.5t-19.5 151.5z"/>
<glyph unicode="v" horiz-adv-x="511" d="M95 467h109l74 -336l192 336h110l-277 -467h-95z"/>
<glyph unicode="w" horiz-adv-x="782" d="M97 467h110l52 -315l164 315h96l52 -315l165 315h110l-253 -467h-85l-61 331l-172 -331h-84z"/>
<glyph unicode="x" horiz-adv-x="506" d="M9 0l230 255l-116 212h122l67 -129l113 129h122l-190 -212l139 -255h-121l-92 171l-154 -171h-120z"/>
<glyph unicode="y" horiz-adv-x="507" d="M55 -228l146 250l-106 445h110l73 -320l188 320h110l-413 -695h-108z"/>
<glyph unicode="z" horiz-adv-x="504" d="M41 0l14 82l315 288h-248l17 97h398l-15 -82l-319 -288h268l-16 -97h-414z"/>
<glyph unicode="{" horiz-adv-x="399" d="M70 196l14 74q24 0 45.5 17.5t25.5 39.5l31 174q15 88 81.5 142t150.5 54h69l-13 -77h-72q-42 0 -77.5 -31t-43.5 -77l-28 -157q-7 -42 -29.5 -75.5t-59.5 -46.5q64 -21 46 -122l-27 -149q-8 -45 16.5 -78t65.5 -33h72l-15 -78h-69q-84 0 -130.5 54.5t-31.5 142.5l30 170 q4 21 -11.5 38.5t-39.5 17.5z"/>
<glyph unicode="|" horiz-adv-x="227" d="M59 -120l163 917h65l-163 -917h-65z"/>
<glyph unicode="}" horiz-adv-x="399" d="M-5 -227l13 78h72q41 0 76.5 33t43.5 78l27 149q8 42 30 76.5t58 45.5q-62 25 -45 122l28 157q8 46 -16 77t-66 31h-72l14 77h69q84 0 131.5 -54t31.5 -142l-31 -174q-4 -22 11.5 -39.5t39.5 -17.5l-13 -74q-24 0 -45.5 -17.5t-25.5 -38.5l-30 -170q-15 -88 -82.5 -142.5 t-151.5 -54.5h-67z"/>
<glyph unicode="&#xa1;" horiz-adv-x="249" d="M26 -227l107 510h82l-78 -510h-111zM126 410q5 29 29.5 48t53.5 19q30 0 47 -19t12 -48t-29 -48.5t-54 -19.5q-29 0 -46.5 19.5t-12.5 48.5z"/>
<glyph unicode="&#xa2;" horiz-adv-x="533" d="M88 235q17 95 86 159t159 79l19 106h65l-18 -103q103 -6 153 -80l-92 -64q-31 45 -97 45q-61 0 -111 -39.5t-62 -102.5q-11 -64 25 -105t96 -41q67 0 113 46l71 -63q-76 -73 -182 -81l-20 -110h-65l20 113q-85 15 -131 80t-29 161z"/>
<glyph unicode="&#xa3;" horiz-adv-x="643" d="M46 0l16 98h96l34 187h-78l10 61h78l22 120q19 106 85 168.5t163 62.5q86 0 134.5 -58t31.5 -156h-103q9 55 -17 84t-72 24q-40 -2 -74 -28.5t-41 -67.5l-27 -149h143l-10 -61h-143l-34 -187h198h4q14 0 22 0.5t18 7t12 18.5l8 50h102l-8 -51q-8 -53 -42.5 -88t-82.5 -35 h-445z"/>
<glyph unicode="&#xa4;" horiz-adv-x="614" d="M98 161l83 71q-14 27 -16 58t6 59.5t20.5 53t29.5 44.5l-60 71l69 58l59 -71q53 32 112 32t103 -32l82 71l48 -58l-83 -72q18 -37 15.5 -77.5t-16.5 -75.5t-37 -61l58 -71l-69 -59l-58 72q-55 -33 -114 -33q-58 0 -102 33l-82 -72zM264 339q-8 -43 16.5 -73t67.5 -30 t79 30t44 73q7 43 -18 73.5t-68 30.5t-78 -30.5t-43 -73.5z"/>
<glyph unicode="&#xa5;" horiz-adv-x="702" d="M139 107l11 65h174l14 82h-174l12 65h172l-194 370h127l142 -274l240 274h127l-328 -370h174l-12 -65h-177l-14 -82h177l-11 -65h-177l-18 -107h-109l18 107h-174z"/>
<glyph unicode="&#xa6;" horiz-adv-x="229" d="M60 -120l68 387h65l-68 -387h-65zM153 409l70 388h65l-70 -388h-65z"/>
<glyph unicode="&#xa7;" horiz-adv-x="521" d="M60 -13l95 27q7 -36 32 -55.5t59 -19.5q44 0 79.5 28.5t43.5 74.5l34 185q9 47 -17.5 75t-71.5 28q-29 0 -55 -9l16 97q28 7 56 7q85 0 133.5 -54.5t32.5 -143.5l-33 -185q-15 -88 -84 -143t-153 -55q-66 0 -112.5 38t-54.5 105zM117 314l34 185q16 89 84 143.5t152 54.5 q66 0 112.5 -38t55.5 -105l-95 -27q-8 36 -33 55.5t-58 19.5q-44 0 -79.5 -28.5t-43.5 -74.5l-34 -185q-9 -47 17.5 -75t71.5 -28q29 0 55 9l-17 -97q-28 -7 -56 -7q-85 0 -133.5 54.5t-32.5 143.5z"/>
<glyph unicode="&#xa8;" horiz-adv-x="540" d="M230 622q4 26 26.5 43.5t49.5 17.5q26 0 41 -17.5t11 -43.5t-26 -44t-48 -18q-27 0 -42.5 18t-11.5 44zM401 622q4 26 26.5 43.5t49.5 17.5q26 0 41.5 -17.5t11.5 -43.5t-26.5 -44t-48.5 -18q-27 0 -42.5 18t-11.5 44z"/>
<glyph unicode="&#xa9;" horiz-adv-x="807" d="M114 343q26 147 145.5 250.5t265.5 103.5t230 -104t58 -250q-26 -147 -146.5 -250t-266.5 -103t-229 103t-57 250zM175 343q-22 -121 47 -206t190 -85q120 0 218.5 85t120.5 206t-47.5 206.5t-190.5 85.5q-120 0 -218 -85.5t-120 -206.5zM285 338q14 75 75 127.5 t137 52.5q74 0 126 -66l-55 -47q-39 46 -83 46q-47 0 -85.5 -33t-46.5 -80t18.5 -80.5t73.5 -33.5q43 0 101 48l37 -50q-76 -65 -150 -65q-76 0 -119 53t-29 128z"/>
<glyph unicode="&#xaa;" horiz-adv-x="482" d="M119 214l9 51h315l-9 -51h-315zM141 489q14 76 71 123.5t127 47.5q34 0 62 -14t39 -41l8 48h66l-58 -329h-66l9 49q-20 -26 -53.5 -41t-67.5 -15q-70 0 -110.5 48t-26.5 124zM211 490q-8 -47 16 -77t68 -30t80 29t45 78q8 48 -19 76t-69 28q-44 0 -78.5 -29t-42.5 -75z "/>
<glyph unicode="&#xab;" horiz-adv-x="494" d="M85 233l175 207h87l-175 -207l102 -207h-87zM262 233l175 207h86l-175 -207l102 -207h-86z"/>
<glyph unicode="&#xac;" horiz-adv-x="639" d="M119 267l16 95h489l-42 -248h-96l26 153h-393z"/>
<glyph unicode="&#xad;" horiz-adv-x="481" d="M99 190l17 93h349l-17 -93h-349z"/>
<glyph unicode="&#xae;" horiz-adv-x="807" d="M114 343q26 147 145.5 250.5t265.5 103.5t230 -104t58 -250q-26 -147 -146.5 -250t-266.5 -103t-229 103t-57 250zM175 343q-22 -121 47 -206t190 -85q120 0 218.5 85t120.5 206t-47.5 206.5t-190.5 85.5q-120 0 -218 -85.5t-120 -206.5zM312 165l62 353h137 q54 0 77.5 -34.5t15.5 -81.5q-6 -39 -31 -69.5t-66 -40.5l69 -127h-84l-67 122h-23l-21 -122h-69zM413 355h66q22 0 38 14t19 33q3 20 -6.5 34t-30.5 14h-68z"/>
<glyph unicode="&#xaf;" horiz-adv-x="498" d="M221 572l14 81h258l-14 -81h-258z"/>
<glyph unicode="&#xb0;" horiz-adv-x="369" d="M148 555q10 55 56 94.5t101 39.5q56 0 89 -39.5t23 -94.5t-56.5 -95t-102.5 -40q-55 0 -87.5 40t-22.5 95zM218 555q-4 -27 11.5 -46t41.5 -19q27 0 49.5 19t26.5 46q5 26 -10.5 45t-42.5 19q-26 0 -49 -19t-27 -45z"/>
<glyph unicode="&#xb1;" horiz-adv-x="540" d="M67 0l14 87h406l-14 -87h-406zM116 281l16 90h157l26 143h91l-26 -143h158l-16 -90h-158l-26 -145h-91l26 145h-157z"/>
<glyph unicode="&#xb2;" horiz-adv-x="317" d="M109 431l5 32l191 189q30 28 36 57q4 24 -11 39.5t-41 15.5q-25 0 -46.5 -17t-31.5 -45l-55 14q17 50 57 80t88 30q52 0 82 -33t21 -84t-59 -101q-3 -3 -118 -114h139l-12 -63h-245z"/>
<glyph unicode="&#xb3;" horiz-adv-x="319" d="M111 507q51 26 57 29q7 -20 23 -34t37 -16q29 -2 56 15.5t32 42.5q6 25 -10 45t-47 20h-44l10 57h44q25 0 42.5 19t18.5 40q1 18 -11 29.5t-32 11.5q-38 4 -66 -31q-3 3 -19.5 16t-21.5 18q49 61 124 56q48 -2 73.5 -33.5t16.5 -73.5q-3 -23 -20 -44.5t-40 -32.5 q28 -11 40 -41.5t3 -63.5q-13 -49 -61 -81.5t-102 -28.5q-38 3 -65.5 25t-37.5 56z"/>
<glyph unicode="&#xb4;" horiz-adv-x="522" d="M224 540l128 158h116l-154 -158h-90z"/>
<glyph unicode="&#xb5;" horiz-adv-x="559" d="M50 -163l112 630h103l-47 -265q-10 -53 10 -82t61 -29q49 0 89.5 30.5t51.5 93.5l45 252h103l-82 -467h-103l9 59q-25 -33 -64.5 -50.5t-76.5 -17.5q-58 0 -82 29l-18 -120l-11 -63h-100z"/>
<glyph unicode="&#xb6;" horiz-adv-x="667" d="M118 472q16 90 90 153.5t165 63.5h78l-120 -679q-1 -5 -2.5 -19t-3 -18.5t-6.5 -12t-14 -10t-24 -2.5h-50l56 307q-85 5 -135 68t-34 149zM207 -186l14 80h96q21 0 39.5 14t21.5 32l133 749h103q56 0 90 -41t24 -96l-16 -85h-84l14 83q4 21 -6.5 36t-29.5 15h-25 l-115 -650q-9 -52 -57.5 -93.5t-103.5 -43.5h-98z"/>
<glyph unicode="&#xb7;" horiz-adv-x="274" d="M114 275q5 29 29 48.5t53 19.5q30 0 47.5 -19.5t12.5 -48.5t-29.5 -48.5t-54.5 -19.5q-29 0 -46 19.5t-12 48.5z"/>
<glyph unicode="&#xb8;" horiz-adv-x="524" d="M145 -84l66 -4l-2 -23q4 -14 16.5 -20t27.5 -2q16 7 23.5 21t4.5 29l-22 122h53l33 -94q5 -12 0 -44q-7 -39 -41.5 -70t-78.5 -31q-41 0 -65 32.5t-15 83.5z"/>
<glyph unicode="&#xb9;" horiz-adv-x="209" d="M146 695l11 60l145 70l-70 -394h-65l52 297z"/>
<glyph unicode="&#xba;" horiz-adv-x="474" d="M112 214l9 51h327l-9 -51h-327zM149 490q13 75 71.5 122.5t130.5 47.5t113.5 -47.5t28.5 -122.5q-13 -76 -72 -124.5t-131 -48.5q-71 0 -112.5 48.5t-28.5 124.5zM216 490q-9 -48 16 -77.5t70 -29.5q44 0 79.5 29.5t44.5 77.5q8 46 -17.5 75t-69.5 29t-79.5 -29 t-43.5 -75z"/>
<glyph unicode="&#xbb;" horiz-adv-x="494" d="M52 26l174 207l-100 207h86l100 -207l-174 -207h-86zM228 26l174 207l-100 207h87l100 -207l-174 -207h-87z"/>
<glyph unicode="&#xbc;" horiz-adv-x="751" d="M93 -10l571 678h71l-571 -678h-71zM136 528l10 60l144 70l-69 -394h-65l53 297zM408 80l263 310h54l-45 -251h54l-10 -59h-54l-13 -80h-65l13 80h-197zM522 139h93l26 143z"/>
<glyph unicode="&#xbd;" horiz-adv-x="800" d="M93 -10l571 678h71l-571 -678h-71zM136 528l10 60l144 70l-69 -394h-65l53 297zM505 0l4 32l191 189q33 33 37 57t-11.5 39.5t-41.5 15.5q-25 0 -47 -17t-31 -45l-55 14q16 50 56.5 80t88.5 30q53 0 83 -33t21 -84q-8 -50 -61 -101q-22 -21 -118 -114h139l-10 -63h-245z "/>
<glyph unicode="&#xbe;" horiz-adv-x="810" d="M100 338l60 30q6 -19 25 -31.5t40 -13.5q28 -1 50.5 14.5t27.5 40.5t-7 44t-42 19h-52l11 60h46q37 0 54 41q7 22 -4.5 38t-38.5 16q-31 0 -60 -32q-5 4 -21.5 18t-21.5 19q22 28 56.5 44t70.5 14q48 -2 73.5 -34t17.5 -75q-9 -45 -56 -76q55 -26 40 -98 q-12 -54 -57.5 -86t-101.5 -31q-37 1 -68.5 23t-41.5 56zM155 -10l571 678h71l-571 -678h-71zM468 80l262 310h54l-45 -251h54l-9 -59h-54l-14 -80h-65l14 80h-197zM581 139h93l26 143z"/>
<glyph unicode="&#xbf;" horiz-adv-x="476" d="M26 -34q12 70 61 120t115 69q36 10 54.5 26.5t24.5 49.5l11 51h100l-9 -51q-7 -39 -19 -65t-32.5 -42.5t-39 -26.5t-52 -25.5t-58.5 -30.5q-45 -27 -54 -75q-7 -41 20 -67t70 -26q42 0 76 29.5t43 77.5h99q-17 -94 -85 -151.5t-153 -57.5q-87 0 -137 53.5t-35 141.5z M293 410q5 29 29 48t54 19q29 0 46.5 -19t12.5 -48t-29.5 -48.5t-53.5 -19.5q-30 0 -47 19.5t-12 48.5z"/>
<glyph unicode="&#xc0;" horiz-adv-x="647" d="M6 0l381 689h115l139 -689h-112l-37 172h-278l-95 -172h-113zM267 267h206l-51 289zM318 920h116l72 -158h-90z"/>
<glyph unicode="&#xc1;" horiz-adv-x="647" d="M6 0l381 689h115l139 -689h-112l-37 172h-278l-95 -172h-113zM267 267h206l-51 289zM411 762l128 158h116l-154 -158h-90z"/>
<glyph unicode="&#xc2;" horiz-adv-x="647" d="M6 0l381 689h115l139 -689h-112l-37 172h-278l-95 -172h-113zM267 267h206l-51 289zM296 763l137 158h104l83 -158h-87l-61 88l-90 -88h-86z"/>
<glyph unicode="&#xc3;" horiz-adv-x="647" d="M6 0l381 689h115l139 -689h-112l-37 172h-278l-95 -172h-113zM267 267h206l-51 289zM324 777q14 63 46 91.5t67 28.5q26 0 49 -20.5t32 -20.5q10 0 20 10t15 31h64q-14 -62 -46 -89.5t-67 -27.5q-24 0 -47 20.5t-33 20.5q-9 0 -19.5 -11t-15.5 -33h-65z"/>
<glyph unicode="&#xc4;" horiz-adv-x="647" d="M6 0l381 689h115l139 -689h-112l-37 172h-278l-95 -172h-113zM267 267h206l-51 289zM322 844q4 26 26.5 43.5t49.5 17.5q26 0 41 -17.5t11 -43.5t-26 -44t-48 -18q-27 0 -42.5 18t-11.5 44zM493 844q4 26 26.5 43.5t49.5 17.5q26 0 41.5 -17.5t11.5 -43.5t-26.5 -44 t-48.5 -18q-27 0 -42.5 18t-11.5 44z"/>
<glyph unicode="&#xc5;" horiz-adv-x="647" d="M6 0l381 689h115l139 -689h-112l-37 172h-278l-95 -172h-113zM267 267h206l-51 289zM365 860q8 47 46 79t83 32q47 0 72.5 -32t17.5 -79q-7 -45 -45 -76.5t-85 -31.5q-45 0 -71 31.5t-18 76.5zM421 860q-4 -21 8.5 -36.5t34.5 -15.5t41 15.5t23 36.5q4 23 -8.5 39 t-35.5 16q-22 0 -40.5 -16t-22.5 -39z"/>
<glyph unicode="&#xc6;" horiz-adv-x="931" d="M-7 0l556 689h441l-18 -101h-307l-35 -199h269l-18 -101h-269l-33 -187h318l-17 -101h-424l29 169h-230l-137 -169h-125zM335 271h168l49 272z"/>
<glyph unicode="&#xc7;" horiz-adv-x="685" d="M108 343q26 147 145.5 250.5t265.5 103.5q81 0 143.5 -33t99.5 -91l-92 -64q-61 86 -170 86q-102 0 -184.5 -73.5t-101.5 -178.5t38 -178t159 -73q115 0 202 90l70 -65q-109 -115 -263 -126l16 -46q5 -14 0 -44q-7 -39 -42 -70t-79 -31q-41 0 -65 32.5t-15 83.5l66 -4 l-1 -23q4 -14 16 -20t27 -2q16 7 23.5 21t4.5 29l-13 75q-132 13 -203 113t-47 238z"/>
<glyph unicode="&#xc8;" horiz-adv-x="567" d="M90 0l121 689h415l-17 -98h-309l-36 -204h270l-18 -97h-270l-34 -193h319l-16 -97h-425zM321 920h116l72 -158h-90z"/>
<glyph unicode="&#xc9;" horiz-adv-x="567" d="M90 0l121 689h415l-17 -98h-309l-36 -204h270l-18 -97h-270l-34 -193h319l-16 -97h-425zM350 762l128 158h116l-154 -158h-90z"/>
<glyph unicode="&#xca;" horiz-adv-x="567" d="M90 0l121 689h415l-17 -98h-309l-36 -204h270l-18 -97h-270l-34 -193h319l-16 -97h-425zM255 763l137 158h104l83 -158h-87l-61 88l-90 -88h-86z"/>
<glyph unicode="&#xcb;" horiz-adv-x="567" d="M90 0l121 689h415l-17 -98h-309l-36 -204h270l-18 -97h-270l-34 -193h319l-16 -97h-425zM291 844q4 26 26.5 43.5t49.5 17.5q26 0 41 -17.5t11 -43.5t-26 -44t-48 -18q-27 0 -42.5 18t-11.5 44zM462 844q4 26 26.5 43.5t49.5 17.5q26 0 41.5 -17.5t11.5 -43.5t-26.5 -44 t-48.5 -18q-27 0 -42.5 18t-11.5 44z"/>
<glyph unicode="&#xcc;" horiz-adv-x="286" d="M90 0l121 689h106l-121 -689h-106zM136 920h116l72 -158h-90z"/>
<glyph unicode="&#xcd;" horiz-adv-x="286" d="M90 0l121 689h106l-121 -689h-106zM227 762l128 158h116l-154 -158h-90z"/>
<glyph unicode="&#xce;" horiz-adv-x="286" d="M90 0l121 689h106l-121 -689h-106zM116 763l137 158h104l83 -158h-87l-61 88l-90 -88h-86z"/>
<glyph unicode="&#xcf;" horiz-adv-x="286" d="M90 0l121 689h106l-121 -689h-106zM142 844q4 26 26.5 43.5t49.5 17.5q26 0 41 -17.5t11 -43.5t-26 -44t-48 -18q-27 0 -42.5 18t-11.5 44zM313 844q4 26 26.5 43.5t49.5 17.5q26 0 41.5 -17.5t11.5 -43.5t-26.5 -44t-48.5 -18q-27 0 -42.5 18t-11.5 44z"/>
<glyph unicode="&#xd0;" horiz-adv-x="723" d="M59 304l14 76h93l54 309h265q144 0 209 -97t38 -249q-27 -151 -125.5 -247t-242.5 -96h-265l53 304h-93zM224 102h158q97 0 161 67t83 174t-21.5 175.5t-137.5 68.5h-158l-36 -207h154l-14 -76h-154z"/>
<glyph unicode="&#xd1;" horiz-adv-x="681" d="M90 0l121 689h102l207 -489l86 489h106l-121 -689h-99l-210 493l-86 -493h-106zM341 777q14 63 46 91.5t67 28.5q26 0 49 -20.5t32 -20.5q10 0 20 10t15 31h64q-14 -62 -46 -89.5t-67 -27.5q-25 0 -48 20.5t-32 20.5t-19.5 -11t-15.5 -33h-65z"/>
<glyph unicode="&#xd2;" horiz-adv-x="792" d="M107 343q26 148 145 251t265 103q147 0 230.5 -103.5t57.5 -250.5t-146 -250t-267 -103q-146 0 -228.5 103t-56.5 250zM213 343q-19 -104 38 -176.5t159 -72.5t185.5 72.5t102.5 176.5t-39 177t-160 73t-185 -73t-101 -177zM385 920h116l71 -158h-90z"/>
<glyph unicode="&#xd3;" horiz-adv-x="792" d="M107 343q26 148 145 251t265 103q147 0 230.5 -103.5t57.5 -250.5t-146 -250t-267 -103q-146 0 -228.5 103t-56.5 250zM213 343q-19 -104 38 -176.5t159 -72.5t185.5 72.5t102.5 176.5t-39 177t-160 73t-185 -73t-101 -177zM481 762l129 158h116l-155 -158h-90z"/>
<glyph unicode="&#xd4;" horiz-adv-x="792" d="M107 343q26 148 145 251t265 103q147 0 230.5 -103.5t57.5 -250.5t-146 -250t-267 -103q-146 0 -228.5 103t-56.5 250zM213 343q-19 -104 38 -176.5t159 -72.5t185.5 72.5t102.5 176.5t-39 177t-160 73t-185 -73t-101 -177zM368 763l138 158h104l82 -158h-87l-60 88 l-91 -88h-86z"/>
<glyph unicode="&#xd5;" horiz-adv-x="792" d="M107 343q26 148 145 251t265 103q147 0 230.5 -103.5t57.5 -250.5t-146 -250t-267 -103q-146 0 -228.5 103t-56.5 250zM213 343q-19 -104 38 -176.5t159 -72.5t185.5 72.5t102.5 176.5t-39 177t-160 73t-185 -73t-101 -177zM397 777q14 62 46 91t67 29q26 0 49 -20.5 t32 -20.5t19.5 9.5t15.5 31.5h64q-15 -62 -46.5 -89.5t-66.5 -27.5q-25 0 -48 20.5t-33 20.5q-9 0 -19.5 -11t-14.5 -33h-65z"/>
<glyph unicode="&#xd6;" horiz-adv-x="792" d="M107 343q26 148 145 251t265 103q147 0 230.5 -103.5t57.5 -250.5t-146 -250t-267 -103q-146 0 -228.5 103t-56.5 250zM213 343q-19 -104 38 -176.5t159 -72.5t185.5 72.5t102.5 176.5t-39 177t-160 73t-185 -73t-101 -177zM394 844q4 26 27 43.5t50 17.5 q26 0 40.5 -17.5t10.5 -43.5t-25.5 -44t-47.5 -18q-27 0 -43 18t-12 44zM565 844q4 26 27 43.5t50 17.5q26 0 41 -17.5t11 -43.5t-26 -44t-48 -18q-27 0 -43 18t-12 44z"/>
<glyph unicode="&#xd7;" horiz-adv-x="495" d="M87 147l145 122l-101 122l75 63l100 -121l145 123l52 -65l-144 -122l100 -122l-75 -65l-101 123l-143 -121z"/>
<glyph unicode="&#xd8;" horiz-adv-x="790" d="M53 31l96 82q-67 97 -43 230q26 148 145 251t265 103q127 0 210 -81l93 81l39 -46l-94 -82q62 -99 40 -226q-26 -147 -146 -250t-267 -103q-100 0 -174 52q-12 8 -31 24l-94 -82zM212 343q-15 -87 22 -154l404 351q-55 53 -140 53q-102 0 -185 -73t-101 -177zM273 142 q54 -48 136 -48q102 0 185.5 72.5t102.5 176.5q15 83 -22 149z"/>
<glyph unicode="&#xd9;" horiz-adv-x="677" d="M123 239l81 450h108l-81 -450q-11 -65 25.5 -106t97.5 -41t111 41t62 106l80 450h108l-80 -450q-20 -110 -106.5 -179.5t-192.5 -69.5q-107 0 -169.5 69.5t-43.5 179.5zM343 920h116l72 -158h-90z"/>
<glyph unicode="&#xda;" horiz-adv-x="677" d="M123 239l81 450h108l-81 -450q-11 -65 25.5 -106t97.5 -41t111 41t62 106l80 450h108l-80 -450q-20 -110 -106.5 -179.5t-192.5 -69.5q-107 0 -169.5 69.5t-43.5 179.5zM404 762l128 158h116l-154 -158h-90z"/>
<glyph unicode="&#xdb;" horiz-adv-x="677" d="M123 239l81 450h108l-81 -450q-11 -65 25.5 -106t97.5 -41t111 41t62 106l80 450h108l-80 -450q-20 -110 -106.5 -179.5t-192.5 -69.5q-107 0 -169.5 69.5t-43.5 179.5zM310 763l137 158h104l83 -158h-87l-60 88l-91 -88h-86z"/>
<glyph unicode="&#xdc;" horiz-adv-x="677" d="M123 239l81 450h108l-81 -450q-11 -65 25.5 -106t97.5 -41t111 41t62 106l80 450h108l-80 -450q-20 -110 -106.5 -179.5t-192.5 -69.5q-107 0 -169.5 69.5t-43.5 179.5zM336 844q4 26 27 43.5t50 17.5q26 0 40.5 -17.5t10.5 -43.5t-25.5 -44t-47.5 -18q-27 0 -43 18 t-12 44zM507 844q4 26 27 43.5t50 17.5q26 0 41 -17.5t11 -43.5t-26 -44t-48 -18q-27 0 -43 18t-12 44z"/>
<glyph unicode="&#xdd;" horiz-adv-x="634" d="M121 689h127l142 -274l240 274h127l-331 -374l-55 -315h-109l56 316zM384 762l128 158h116l-154 -158h-90z"/>
<glyph unicode="&#xde;" d="M90 0l121 689h106l-21 -120h130q91 0 142.5 -59.5t33.5 -155.5q-18 -98 -90 -158.5t-163 -60.5h-130l-23 -135h-106zM236 233h128q46 0 84 33.5t48 86.5q9 54 -19 86.5t-76 32.5h-122z"/>
<glyph unicode="&#xdf;" horiz-adv-x="565" d="M72 0l87 490q17 97 82 152t153 55q84 0 132.5 -48t35.5 -122q-14 -74 -85 -120q46 -25 70 -76.5t14 -112.5q-17 -97 -93.5 -162.5t-177.5 -65.5q-38 -2 -80 13l25 97q38 -13 71 -13q56 0 102 40t55 93q9 50 -22.5 91t-88.5 41h-35l16 86h31q35 0 63.5 25t34.5 59 t-16 55.5t-62 22.5q-50 0 -85 -35.5t-44 -85.5l-84 -479h-99z"/>
<glyph unicode="&#xe0;" horiz-adv-x="610" d="M83 234q19 108 100.5 175.5t179.5 67.5q46 0 87.5 -19.5t56.5 -56.5l11 66h102l-82 -467h-102l11 67q-29 -37 -76.5 -57t-93.5 -20q-98 0 -155.5 67.5t-38.5 176.5zM189 235q-11 -63 23.5 -104t94.5 -41t108.5 39.5t60.5 105.5q11 65 -25 103.5t-93 38.5 q-60 0 -108.5 -39.5t-60.5 -102.5zM282 698h116l72 -158h-90z"/>
<glyph unicode="&#xe1;" horiz-adv-x="610" d="M83 234q19 108 100.5 175.5t179.5 67.5q46 0 87.5 -19.5t56.5 -56.5l11 66h102l-82 -467h-102l11 67q-29 -37 -76.5 -57t-93.5 -20q-98 0 -155.5 67.5t-38.5 176.5zM189 235q-11 -63 23.5 -104t94.5 -41t108.5 39.5t60.5 105.5q11 65 -25 103.5t-93 38.5 q-60 0 -108.5 -39.5t-60.5 -102.5zM328 540l128 158h116l-154 -158h-90z"/>
<glyph unicode="&#xe2;" horiz-adv-x="610" d="M83 234q19 108 100.5 175.5t179.5 67.5q46 0 87.5 -19.5t56.5 -56.5l11 66h102l-82 -467h-102l11 67q-29 -37 -76.5 -57t-93.5 -20q-98 0 -155.5 67.5t-38.5 176.5zM189 235q-11 -63 23.5 -104t94.5 -41t108.5 39.5t60.5 105.5q11 65 -25 103.5t-93 38.5 q-60 0 -108.5 -39.5t-60.5 -102.5zM238 541l138 158h104l82 -158h-87l-59 88l-92 -88h-86z"/>
<glyph unicode="&#xe3;" horiz-adv-x="610" d="M83 234q19 108 100.5 175.5t179.5 67.5q46 0 87.5 -19.5t56.5 -56.5l11 66h102l-82 -467h-102l11 67q-29 -37 -76.5 -57t-93.5 -20q-98 0 -155.5 67.5t-38.5 176.5zM189 235q-11 -63 23.5 -104t94.5 -41t108.5 39.5t60.5 105.5q11 65 -25 103.5t-93 38.5 q-60 0 -108.5 -39.5t-60.5 -102.5zM267 555q14 62 46.5 91t67.5 29q26 0 48 -20.5t31 -20.5q10 0 21 10t16 31h64q-15 -62 -46.5 -89.5t-66.5 -27.5q-24 0 -47.5 20.5t-33.5 20.5t-20.5 -11t-14.5 -33h-65z"/>
<glyph unicode="&#xe4;" horiz-adv-x="610" d="M83 234q19 108 100.5 175.5t179.5 67.5q46 0 87.5 -19.5t56.5 -56.5l11 66h102l-82 -467h-102l11 67q-29 -37 -76.5 -57t-93.5 -20q-98 0 -155.5 67.5t-38.5 176.5zM189 235q-11 -63 23.5 -104t94.5 -41t108.5 39.5t60.5 105.5q11 65 -25 103.5t-93 38.5 q-60 0 -108.5 -39.5t-60.5 -102.5zM265 622q4 26 27 43.5t50 17.5q26 0 40.5 -17.5t10.5 -43.5t-25.5 -44t-47.5 -18q-27 0 -43 18t-12 44zM436 622q4 26 27 43.5t50 17.5q26 0 41 -17.5t11 -43.5t-26 -44t-48 -18q-27 0 -43 18t-12 44z"/>
<glyph unicode="&#xe5;" horiz-adv-x="610" d="M83 234q19 108 100.5 175.5t179.5 67.5q46 0 87.5 -19.5t56.5 -56.5l11 66h102l-82 -467h-102l11 67q-29 -37 -76.5 -57t-93.5 -20q-98 0 -155.5 67.5t-38.5 176.5zM189 235q-11 -63 23.5 -104t94.5 -41t108.5 39.5t60.5 105.5q11 65 -25 103.5t-93 38.5 q-60 0 -108.5 -39.5t-60.5 -102.5zM307 638q9 47 46 79t82 32q47 0 73.5 -32t17.5 -79q-8 -45 -46 -76.5t-84 -31.5q-45 0 -71 31.5t-18 76.5zM364 638q-4 -21 8 -36.5t34 -15.5t41.5 15.5t23.5 36.5q4 23 -9.5 39t-36.5 16q-22 0 -39 -16t-22 -39z"/>
<glyph unicode="&#xe6;" horiz-adv-x="969" d="M83 234q19 108 100.5 175.5t179.5 67.5q46 0 87.5 -19.5t56.5 -56.5l11 66h99l-9 -52q78 62 174 62q102 0 156 -66.5t35 -175.5q-4 -20 -9 -38h-370q-2 -54 32 -85.5t91 -31.5q40 0 78 18t61 49q30 -16 78 -37q-41 -59 -105 -89.5t-133 -30.5q-101 0 -151 63l-10 -53h-99 l11 67q-29 -37 -76.5 -57t-93.5 -20q-98 0 -155.5 67.5t-38.5 176.5zM189 235q-11 -63 23.5 -104t94.5 -41t108.5 39.5t60.5 105.5q11 65 -25 103.5t-93 38.5q-60 0 -108.5 -39.5t-60.5 -102.5zM608 272h270q2 54 -28 84.5t-83 30.5q-55 0 -99 -31t-60 -84z"/>
<glyph unicode="&#xe7;" horiz-adv-x="515" d="M83 235q19 108 103.5 175t188.5 67q117 0 172 -81l-92 -64q-33 45 -97 45q-61 0 -111 -39.5t-62 -102.5q-11 -64 25 -105t96 -41q67 0 113 46l70 -63q-71 -69 -170 -80l17 -47q5 -12 0 -44q-7 -39 -42 -70t-79 -31q-41 0 -65 32.5t-15 83.5l66 -4l-1 -23q4 -14 16 -20 t27 -2q16 7 23.5 21t4.5 29l-13 75q-91 11 -142 77.5t-33 165.5z"/>
<glyph unicode="&#xe8;" horiz-adv-x="553" d="M82 235q19 109 100 175.5t183 66.5t156 -66.5t35 -175.5q-5 -29 -8 -38h-371q-2 -53 32 -85t91 -32q40 0 78 18t61 49q30 -16 78 -37q-41 -59 -105 -89.5t-133 -30.5q-102 0 -159 68t-38 177zM191 272h271q1 54 -29 84.5t-83 30.5q-55 0 -98.5 -31t-60.5 -84zM243 698 h116l72 -158h-90z"/>
<glyph unicode="&#xe9;" horiz-adv-x="553" d="M82 235q19 109 100 175.5t183 66.5t156 -66.5t35 -175.5q-5 -29 -8 -38h-371q-2 -53 32 -85t91 -32q40 0 78 18t61 49q30 -16 78 -37q-41 -59 -105 -89.5t-133 -30.5q-102 0 -159 68t-38 177zM191 272h271q1 54 -29 84.5t-83 30.5q-55 0 -98.5 -31t-60.5 -84zM311 540 l128 158h116l-154 -158h-90z"/>
<glyph unicode="&#xea;" horiz-adv-x="553" d="M82 235q19 109 100 175.5t183 66.5t156 -66.5t35 -175.5q-5 -29 -8 -38h-371q-2 -53 32 -85t91 -32q40 0 78 18t61 49q30 -16 78 -37q-41 -59 -105 -89.5t-133 -30.5q-102 0 -159 68t-38 177zM191 272h271q1 54 -29 84.5t-83 30.5q-55 0 -98.5 -31t-60.5 -84zM211 541 l138 158h104l82 -158h-87l-59 88l-92 -88h-86z"/>
<glyph unicode="&#xeb;" horiz-adv-x="553" d="M82 235q19 109 100 175.5t183 66.5t156 -66.5t35 -175.5q-5 -29 -8 -38h-371q-2 -53 32 -85t91 -32q40 0 78 18t61 49q30 -16 78 -37q-41 -59 -105 -89.5t-133 -30.5q-102 0 -159 68t-38 177zM191 272h271q1 54 -29 84.5t-83 30.5q-55 0 -98.5 -31t-60.5 -84zM238 622 q4 26 27 43.5t50 17.5q26 0 40.5 -17.5t10.5 -43.5t-25.5 -44t-47.5 -18q-27 0 -43 18t-12 44zM409 622q4 26 27 43.5t50 17.5q26 0 41 -17.5t11 -43.5t-26 -44t-48 -18q-27 0 -43 18t-12 44z"/>
<glyph unicode="&#xec;" horiz-adv-x="246" d="M72 0l82 467h102l-82 -467h-102zM78 698h116l72 -158h-90z"/>
<glyph unicode="&#xed;" horiz-adv-x="246" d="M72 0l82 467h102l-82 -467h-102zM170 540l128 158h116l-154 -158h-90z"/>
<glyph unicode="&#xee;" horiz-adv-x="246" d="M46 541l138 158h104l82 -158h-87l-60 88l-91 -88h-86zM72 0l82 467h102l-82 -467h-102z"/>
<glyph unicode="&#xef;" horiz-adv-x="246" d="M72 0l82 467h102l-82 -467h-102zM73 622q4 26 26.5 43.5t49.5 17.5q26 0 41 -17.5t11 -43.5t-26 -44t-48 -18q-27 0 -42.5 18t-11.5 44zM244 622q4 26 26.5 43.5t49.5 17.5q26 0 41.5 -17.5t11.5 -43.5t-26.5 -44t-48.5 -18q-27 0 -42.5 18t-11.5 44z"/>
<glyph unicode="&#xf0;" d="M82 235q19 104 97.5 171.5t171.5 67.5q23 0 38 -7l-55 80l-94 -49l-23 47l88 47l-57 97h112l31 -51l78 39l27 -42l-75 -42l128 -212q35 -61 20 -146q-19 -108 -101.5 -176.5t-184.5 -68.5t-161 68.5t-40 176.5zM181 235q-11 -65 23.5 -105.5t95.5 -40.5q60 0 110 41 t61 105t-24 103.5t-95 39.5q-61 0 -110.5 -39.5t-60.5 -103.5z"/>
<glyph unicode="&#xf1;" horiz-adv-x="563" d="M72 0l82 467h103l-12 -70q25 38 70 59t87 21q85 0 121.5 -53t19.5 -152l-47 -272h-103l45 260q10 55 -11 85.5t-67 30.5q-51 0 -90.5 -30.5t-50.5 -94.5l-44 -251h-103zM245 555q15 63 47 91.5t67 28.5q26 0 48.5 -20.5t31.5 -20.5q10 0 20.5 10t15.5 31h64 q-14 -62 -46 -89.5t-67 -27.5q-24 0 -47 20.5t-33 20.5t-20.5 -11t-15.5 -33h-65z"/>
<glyph unicode="&#xf2;" d="M82 235q19 108 101.5 175t184.5 67q103 0 162 -67t40 -175t-102.5 -176.5t-185.5 -68.5t-160.5 68.5t-39.5 176.5zM184 235q-12 -64 22.5 -104.5t93.5 -40.5q60 0 107.5 40t59.5 105q11 63 -23 102t-94 39q-59 0 -107 -39t-59 -102zM231 698h116l72 -158h-90z"/>
<glyph unicode="&#xf3;" d="M82 235q19 108 101.5 175t184.5 67q103 0 162 -67t40 -175t-102.5 -176.5t-185.5 -68.5t-160.5 68.5t-39.5 176.5zM184 235q-12 -64 22.5 -104.5t93.5 -40.5q60 0 107.5 40t59.5 105q11 63 -23 102t-94 39q-59 0 -107 -39t-59 -102zM331 540l128 158h116l-154 -158h-90z "/>
<glyph unicode="&#xf4;" d="M82 235q19 108 101.5 175t184.5 67q103 0 162 -67t40 -175t-102.5 -176.5t-185.5 -68.5t-160.5 68.5t-39.5 176.5zM184 235q-12 -64 22.5 -104.5t93.5 -40.5q60 0 107.5 40t59.5 105q11 63 -23 102t-94 39q-59 0 -107 -39t-59 -102zM218 541l138 158h104l82 -158h-87 l-59 88l-92 -88h-86z"/>
<glyph unicode="&#xf5;" d="M82 235q19 108 101.5 175t184.5 67q103 0 162 -67t40 -175t-102.5 -176.5t-185.5 -68.5t-160.5 68.5t-39.5 176.5zM184 235q-12 -64 22.5 -104.5t93.5 -40.5q60 0 107.5 40t59.5 105q11 63 -23 102t-94 39q-59 0 -107 -39t-59 -102zM247 555q14 62 46.5 91t67.5 29 q26 0 48 -20.5t31 -20.5q10 0 21 10t16 31h64q-15 -62 -46.5 -89.5t-66.5 -27.5q-24 0 -48 20.5t-33 20.5q-10 0 -20.5 -11t-14.5 -33h-65z"/>
<glyph unicode="&#xf6;" d="M82 235q19 108 101.5 175t184.5 67q103 0 162 -67t40 -175t-102.5 -176.5t-185.5 -68.5t-160.5 68.5t-39.5 176.5zM184 235q-12 -64 22.5 -104.5t93.5 -40.5q60 0 107.5 40t59.5 105q11 63 -23 102t-94 39q-59 0 -107 -39t-59 -102zM245 622q4 26 27 43.5t50 17.5 q26 0 40.5 -17.5t10.5 -43.5t-25.5 -44t-47.5 -18q-27 0 -43 18t-12 44zM416 622q4 26 27 43.5t50 17.5q26 0 41 -17.5t11 -43.5t-26 -44t-48 -18q-27 0 -43 18t-12 44z"/>
<glyph unicode="&#xf7;" horiz-adv-x="548" d="M96 209l14 86h428l-14 -86h-428zM218 84q4 28 28.5 47t52.5 19t44.5 -19t12.5 -47t-28.5 -47t-52.5 -19t-44.5 19t-12.5 47zM279 424q4 28 28 46.5t52 18.5t45 -18.5t13 -46.5t-28.5 -47t-52.5 -19t-44.5 19t-12.5 47z"/>
<glyph unicode="&#xf8;" d="M41 22l66 57q-41 65 -25 156q20 108 102.5 175t184.5 67q81 0 142 -48l60 52l39 -46l-60 -52q35 -64 21 -148q-19 -108 -102.5 -176.5t-185.5 -68.5q-83 0 -135 43l-68 -58zM185 235q-9 -49 8 -81l232 201q-30 21 -74 21q-59 0 -107 -39t-59 -102zM233 108q29 -18 68 -18 q60 0 108 40t59 105q7 38 -5 72z"/>
<glyph unicode="&#xf9;" horiz-adv-x="562" d="M101 195l48 272h103l-46 -260q-10 -56 11.5 -86.5t65.5 -30.5q51 0 90.5 30.5t50.5 95.5l45 251h103l-82 -467h-103l11 68q-25 -37 -69 -57.5t-84 -20.5q-86 0 -124.5 53.5t-19.5 151.5zM245 698h116l72 -158h-90z"/>
<glyph unicode="&#xfa;" horiz-adv-x="562" d="M101 195l48 272h103l-46 -260q-10 -56 11.5 -86.5t65.5 -30.5q51 0 90.5 30.5t50.5 95.5l45 251h103l-82 -467h-103l11 68q-25 -37 -69 -57.5t-84 -20.5q-86 0 -124.5 53.5t-19.5 151.5zM308 540l128 158h116l-154 -158h-90z"/>
<glyph unicode="&#xfb;" horiz-adv-x="562" d="M101 195l48 272h103l-46 -260q-10 -56 11.5 -86.5t65.5 -30.5q51 0 90.5 30.5t50.5 95.5l45 251h103l-82 -467h-103l11 68q-25 -37 -69 -57.5t-84 -20.5q-86 0 -124.5 53.5t-19.5 151.5zM211 541l138 158h104l82 -158h-87l-60 88l-91 -88h-86z"/>
<glyph unicode="&#xfc;" horiz-adv-x="562" d="M101 195l48 272h103l-46 -260q-10 -56 11.5 -86.5t65.5 -30.5q51 0 90.5 30.5t50.5 95.5l45 251h103l-82 -467h-103l11 68q-25 -37 -69 -57.5t-84 -20.5q-86 0 -124.5 53.5t-19.5 151.5zM238 622q4 26 26.5 43.5t49.5 17.5q26 0 41 -17.5t11 -43.5t-26 -44t-48 -18 q-27 0 -42.5 18t-11.5 44zM409 622q4 26 26.5 43.5t49.5 17.5q26 0 41.5 -17.5t11.5 -43.5t-26.5 -44t-48.5 -18q-27 0 -42.5 18t-11.5 44z"/>
<glyph unicode="&#xfd;" horiz-adv-x="507" d="M55 -228l146 250l-106 445h110l73 -320l188 320h110l-413 -695h-108zM270 540l128 158h116l-154 -158h-90z"/>
<glyph unicode="&#xfe;" horiz-adv-x="601" d="M32 -217l168 937h103l-57 -311q28 33 72 50.5t89 17.5q100 0 155.5 -67.5t35.5 -176.5q-19 -108 -98.5 -175.5t-179.5 -67.5q-45 0 -82.5 18t-53.5 51l-49 -276h-103zM216 234q-12 -66 22.5 -105t94.5 -39q58 0 104.5 40.5t57.5 103.5q12 63 -20.5 102.5t-91.5 39.5 q-56 0 -105.5 -38.5t-61.5 -103.5z"/>
<glyph unicode="&#xff;" horiz-adv-x="507" d="M55 -228l146 250l-106 445h110l73 -320l188 320h110l-413 -695h-108zM217 632q4 26 26.5 43.5t49.5 17.5q26 0 41 -17.5t11 -43.5t-25.5 -44t-47.5 -18q-27 0 -43 18t-12 44zM388 632q4 26 26.5 43.5t49.5 17.5q26 0 41.5 -17.5t11.5 -43.5t-26 -44t-48 -18q-27 0 -43 18 t-12 44z"/>
<glyph unicode="&#x152;" horiz-adv-x="1111" d="M107 343q26 148 144.5 251t264.5 103q71 0 129 -29t93 -80l19 101h413l-19 -101h-307l-34 -199h269l-18 -101h-269l-33 -187h318l-17 -101h-424l16 98q-114 -108 -261 -108q-146 0 -228 103t-56 250zM213 343q-19 -103 38 -175t159 -72q105 0 186 74t99 181 q15 100 -42 170t-156 70q-102 0 -183.5 -72t-100.5 -176z"/>
<glyph unicode="&#x153;" horiz-adv-x="939" d="M82 235q19 108 101.5 174.5t184.5 66.5q123 0 178 -89q85 90 206 90q102 0 154.5 -64.5t36.5 -170.5q-4 -27 -9 -45h-370q-2 -53 31.5 -85t90.5 -32q41 0 78.5 17.5t61.5 49.5q30 -16 78 -37q-41 -59 -105 -89.5t-133 -30.5q-123 0 -175 91q-88 -91 -209 -91 q-102 0 -160.5 68.5t-39.5 176.5zM184 235q-12 -64 22.5 -104.5t93.5 -40.5q60 0 107.5 40t59.5 105q11 63 -23 102t-94 39q-59 0 -107 -39t-59 -102zM577 272h271q1 54 -28.5 84.5t-82.5 30.5q-55 0 -98.5 -31t-61.5 -84z"/>
<glyph unicode="&#x178;" horiz-adv-x="634" d="M121 689h127l142 -274l240 274h127l-331 -374l-55 -315h-109l56 316zM317 844q4 26 26.5 43.5t49.5 17.5q26 0 41 -17.5t11 -43.5t-26 -44t-48 -18q-27 0 -42.5 18t-11.5 44zM488 844q4 26 26.5 43.5t49.5 17.5q26 0 41.5 -17.5t11.5 -43.5t-26.5 -44t-48.5 -18 q-27 0 -42.5 18t-11.5 44z"/>
<glyph unicode="&#x2c6;" horiz-adv-x="534" d="M200 541l138 158h104l82 -158h-87l-60 88l-91 -88h-86z"/>
<glyph unicode="&#x2dc;" horiz-adv-x="432" d="M177 555q14 62 46.5 91t67.5 29q26 0 48.5 -20.5t31.5 -20.5q10 0 20.5 9.5t15.5 31.5h64q-15 -62 -46.5 -89.5t-66.5 -27.5q-24 0 -48 20.5t-33 20.5q-10 0 -20.5 -11t-14.5 -33h-65z"/>
<glyph unicode="&#x2000;" horiz-adv-x="485"/>
<glyph unicode="&#x2001;" horiz-adv-x="971"/>
<glyph unicode="&#x2002;" horiz-adv-x="485"/>
<glyph unicode="&#x2003;" horiz-adv-x="971"/>
<glyph unicode="&#x2004;" horiz-adv-x="323"/>
<glyph unicode="&#x2005;" horiz-adv-x="242"/>
<glyph unicode="&#x2006;" horiz-adv-x="161"/>
<glyph unicode="&#x2007;" horiz-adv-x="161"/>
<glyph unicode="&#x2008;" horiz-adv-x="121"/>
<glyph unicode="&#x2009;" horiz-adv-x="194"/>
<glyph unicode="&#x200a;" horiz-adv-x="53"/>
<glyph unicode="&#x2010;" horiz-adv-x="481" d="M99 190l17 93h349l-17 -93h-349z"/>
<glyph unicode="&#x2011;" horiz-adv-x="481" d="M99 190l17 93h349l-17 -93h-349z"/>
<glyph unicode="&#x2012;" horiz-adv-x="481" d="M99 190l17 93h349l-17 -93h-349z"/>
<glyph unicode="&#x2013;" horiz-adv-x="601" d="M99 189l16 90h469l-16 -90h-469z"/>
<glyph unicode="&#x2014;" horiz-adv-x="808" d="M99 189l16 90h676l-16 -90h-676z"/>
<glyph unicode="&#x2018;" horiz-adv-x="254" d="M139 466q19 80 64.5 147.5t87.5 97.5l49 -22q-89 -100 -110 -223h-91z"/>
<glyph unicode="&#x2019;" horiz-adv-x="249" d="M126 466q90 102 110 223h91q-19 -80 -64.5 -147.5t-87.5 -97.5z"/>
<glyph unicode="&#x201a;" horiz-adv-x="245" d="M7 -58q90 102 111 223h91q-19 -80 -65 -147.5t-89 -97.5z"/>
<glyph unicode="&#x201c;" horiz-adv-x="408" d="M139 467q18 79 64.5 147t88.5 98l48 -22q-89 -100 -110 -223h-91zM294 467q18 79 64 147t88 98l48 -22q-88 -102 -109 -223h-91z"/>
<glyph unicode="&#x201d;" horiz-adv-x="403" d="M126 466q89 103 110 223h90q-18 -80 -63 -147.5t-88 -97.5zM280 466q90 102 110 223h91q-18 -80 -63.5 -147.5t-87.5 -97.5z"/>
<glyph unicode="&#x201e;" horiz-adv-x="399" d="M7 -58q89 103 111 223h90q-19 -80 -64.5 -147.5t-88.5 -97.5zM161 -58q90 102 111 223h91q-19 -80 -65 -147.5t-88 -97.5z"/>
<glyph unicode="&#x2022;" horiz-adv-x="462" d="M120 239q11 62 63 103.5t115 41.5t100 -41.5t26 -103.5q-11 -63 -63 -104.5t-115 -41.5t-100 41.5t-26 104.5z"/>
<glyph unicode="&#x2026;" horiz-adv-x="752" d="M73 57q5 29 28.5 48.5t52.5 19.5q30 0 47.5 -19.5t12.5 -48.5t-29.5 -48t-54.5 -19q-29 0 -45.5 19t-11.5 48zM316 57q5 29 28.5 48.5t52.5 19.5q30 0 47.5 -19.5t12.5 -48.5t-29.5 -48t-54.5 -19q-29 0 -45.5 19t-11.5 48zM558 57q5 29 29 48.5t53 19.5t47 -19.5 t13 -48.5t-30 -48t-54 -19q-30 0 -46.5 19t-11.5 48z"/>
<glyph unicode="&#x202f;" horiz-adv-x="194"/>
<glyph unicode="&#x2039;" horiz-adv-x="318" d="M85 233l175 207h87l-175 -207l102 -207h-87z"/>
<glyph unicode="&#x203a;" horiz-adv-x="318" d="M52 26l174 207l-100 207h87l100 -207l-174 -207h-87z"/>
<glyph unicode="&#x205f;" horiz-adv-x="242"/>
<glyph unicode="&#x20ac;" horiz-adv-x="820" d="M93 250l10 57h473l-10 -57h-252q15 -71 68 -114.5t130 -43.5q114 0 201 90l70 -65q-55 -59 -130.5 -93t-158.5 -34q-121 0 -200.5 73t-89.5 187h-111zM113 366l10 57h108q48 119 156 196.5t232 77.5q81 0 144 -33t99 -91l-92 -64q-59 86 -169 86q-81 0 -152.5 -48 t-108.5 -124h256l-10 -57h-473z"/>
<glyph unicode="&#x2122;" horiz-adv-x="844" d="M174 626l10 63h365l74 -259l165 259h62l-22 -378h-69l15 256l-136 -215h-57l-60 215l-76 -256h-70l94 315h-106l-57 -315h-72l57 315h-117z"/>
<glyph unicode="&#xe000;" horiz-adv-x="465" d="M0 0v465h465v-465h-465z"/>
</font>
</defs>
</svg>
